<?xml version="1.0" encoding="UTF-8"?>
<svg version="1.1" xmlns="http://www.w3.org/2000/svg" width="512" height="512">
<path d="M0 0 C0.5781546 0.2640715 1.1563092 0.52814301 1.75198364 0.80021667 C3.74983046 1.72716225 5.72246007 2.6968111 7.6953125 3.67578125 C8.4323793 4.03729782 9.16944611 4.39881439 9.92884827 4.77128601 C11.50875489 5.54629614 13.08790167 6.32285685 14.66635132 7.10083008 C27.10216242 13.22943982 39.57657298 19.24061658 52.1875 25 C97.97426864 46.06113389 134.87617123 78.07374739 160 122 C160.33741211 122.57766113 160.67482422 123.15532227 161.02246094 123.75048828 C177.58080575 152.2389186 187.21815157 186.93409872 187.12025452 219.91493225 C187.12111053 220.97770889 187.12196655 222.04048553 187.12284851 223.13546753 C187.12449687 226.68936874 187.11899118 230.24322228 187.11352539 233.79711914 C187.11321891 236.39140287 187.11335279 238.98568667 187.11389065 241.57997036 C187.11442084 247.81511265 187.10981784 254.05024047 187.10338932 260.28537905 C187.09617213 267.50238687 187.09539363 274.71938968 187.09460449 281.93640137 C187.0893602 300.97843653 187.07539902 320.02046848 187.0625 339.0625 C187.041875 381.611875 187.02125 424.16125 187 468 C59.95 468 -67.1 468 -198 468 C-198.04125 427.554375 -198.0825 387.10875 -198.125 345.4375 C-198.14320801 332.69954834 -198.16141602 319.96159668 -198.18017578 306.83764648 C-198.18920898 291.19934082 -198.18920898 291.19934082 -198.19088745 283.86219788 C-198.19273944 278.77319062 -198.20018906 273.68422573 -198.21115112 268.5952301 C-198.22500143 262.07775584 -198.22895814 255.56034204 -198.22614455 249.04285443 C-198.22673177 246.66728282 -198.23061863 244.29170881 -198.23843026 241.91614997 C-198.29838364 222.77468418 -197.97632066 203.36835606 -193.6875 184.625 C-193.46731201 183.62791016 -193.24712402 182.63082031 -193.02026367 181.60351562 C-192.37175097 178.72905192 -191.69480333 175.86358972 -191 173 C-190.81598633 172.23526367 -190.63197266 171.47052734 -190.44238281 170.68261719 C-182.21501452 137.54502846 -164.5782323 107.33422294 -142 82 C-141.53174805 81.47003418 -141.06349609 80.94006836 -140.58105469 80.39404297 C-135.06306565 74.16702807 -129.44484272 68.28265796 -123 63 C-121.87191691 62.03701909 -120.74436464 61.07341618 -119.6171875 60.109375 C-99.42005759 43.04210413 -76.44040585 31.25594128 -52.49975586 20.34179688 C-45.47562442 17.12785193 -38.53274362 13.79342838 -31.6328125 10.3203125 C-30.03789489 9.52324974 -28.44284323 8.72645515 -26.84765625 7.92993164 C-24.49588101 6.75528326 -22.1484407 5.57456443 -19.81103516 4.37155151 C-17.63507283 3.25210492 -15.44816424 2.15736176 -13.2578125 1.06640625 C-12.61208282 0.72549957 -11.96635315 0.3845929 -11.30105591 0.03335571 C-6.75437143 -2.19205766 -4.53695105 -2.1301717 0 0 Z " fill="#E8A953" transform="translate(266,23)"/>
<path d="M0 0 C0.5781546 0.2640715 1.1563092 0.52814301 1.75198364 0.80021667 C3.74983046 1.72716225 5.72246007 2.6968111 7.6953125 3.67578125 C8.4323793 4.03729782 9.16944611 4.39881439 9.92884827 4.77128601 C11.50875489 5.54629614 13.08790167 6.32285685 14.66635132 7.10083008 C27.10216242 13.22943982 39.57657298 19.24061658 52.1875 25 C97.97426864 46.06113389 134.87617123 78.07374739 160 122 C160.33741211 122.57766113 160.67482422 123.15532227 161.02246094 123.75048828 C177.58081359 152.23893208 187.21812925 186.93408789 187.12025452 219.91493225 C187.12153615 221.51292708 187.12153615 221.51292708 187.12284368 223.14320463 C187.12448403 226.69452685 187.11900085 230.2458013 187.11352539 233.79711914 C187.11324318 236.35013834 187.11340191 238.90315761 187.1139679 241.45617676 C187.11419524 246.94322881 187.11136828 252.43026561 187.10573006 257.91731453 C187.09758358 265.8505455 187.09499661 273.78377073 187.09374207 281.71700542 C187.09155649 294.58990467 187.08490981 307.46279756 187.07543945 320.33569336 C187.06625255 332.83634408 187.05917797 345.33699307 187.05493164 357.83764648 C187.05453756 358.9945475 187.05453756 358.9945475 187.05413551 360.17482025 C187.05283042 364.04425899 187.05156672 367.91369773 187.05032361 371.78313649 C187.03996638 403.85542996 187.02153637 435.9277116 187 468 C170.17 468 153.34 468 136 468 C135.98018066 460.41966797 135.96036133 452.83933594 135.93994141 445.02929688 C135.87502511 420.72781301 135.80048543 396.42636771 135.71994839 372.12493089 C135.70743071 368.34516901 135.69499775 364.56540686 135.68261719 360.78564453 C135.6789182 359.65700168 135.6789182 359.65700168 135.67514448 358.50555795 C135.63550649 346.34960942 135.60271968 334.19365169 135.57250018 322.03767651 C135.54129895 309.54867474 135.50265306 297.05971171 135.45720994 284.57075357 C135.42943894 276.8750108 135.40735705 269.17929611 135.39273749 261.48351693 C135.38087021 255.56540371 135.35860539 249.64735701 135.33261681 243.7292881 C135.32359984 241.31395799 135.31786467 238.89861288 135.31578636 236.48326683 C135.29877897 219.70961066 134.68591612 203.72041642 130.25 187.4375 C129.85530518 185.96591431 129.85530518 185.96591431 129.45263672 184.46459961 C121.67101602 156.25101057 106.82620539 132.30116531 87 111 C86.33742188 110.27167969 85.67484375 109.54335937 84.9921875 108.79296875 C65.590528 88.32163601 39.11920035 76.77935338 14.05664062 64.93164062 C11.43402382 63.69134395 8.83124456 62.42018568 6.24023438 61.11523438 C5.10392578 60.55642578 3.96761719 59.99761719 2.796875 59.421875 C1.81557617 58.9278418 0.83427734 58.43380859 -0.17675781 57.92480469 C-6.05334981 55.99981935 -10.91484884 58.63482895 -16.21484375 61.17578125 C-16.89890289 61.49687363 -17.58296204 61.817966 -18.28775024 62.14878845 C-20.5085031 63.19480114 -22.72334329 64.25260332 -24.9375 65.3125 C-26.07540482 65.85396667 -26.07540482 65.85396667 -27.23629761 66.40637207 C-51.93273948 78.16091133 -75.26545012 89.71205945 -95 109 C-96.38251953 110.28970703 -96.38251953 110.28970703 -97.79296875 111.60546875 C-118.95826234 131.81548815 -133.38954509 159.68983818 -140.625 187.8125 C-140.8314917 188.6063208 -141.0379834 189.4001416 -141.25073242 190.21801758 C-145.12163164 205.85103964 -145.30527778 221.07669366 -145.31884766 237.08935547 C-145.32815836 239.61355913 -145.33832872 242.13775975 -145.34928894 244.66195679 C-145.37086071 250.07143127 -145.38652334 255.48086999 -145.39665604 260.89037704 C-145.41131618 268.71135433 -145.43687291 276.53226705 -145.46498732 284.35320617 C-145.51032297 297.04583771 -145.54699207 309.73847861 -145.578125 322.43115234 C-145.60836498 334.75213258 -145.64274004 347.07308999 -145.68261719 359.39404297 C-145.68630951 360.53553208 -145.68630951 360.53553208 -145.69007643 361.70008157 C-145.70245208 365.51821515 -145.71490841 369.33634846 -145.72740483 373.15448165 C-145.83077433 404.76962729 -145.91843033 436.38478873 -146 468 C-163.16 468 -180.32 468 -198 468 C-198.04420881 436.79776352 -198.08109147 405.59555763 -198.10213066 374.39329955 C-198.10463165 370.69766514 -198.10722033 367.00203079 -198.10986328 363.30639648 C-198.1103879 362.57075716 -198.11091252 361.83511784 -198.11145304 361.07718641 C-198.12012192 349.21370489 -198.13587219 337.35024304 -198.15430559 325.48677313 C-198.17310309 313.2859194 -198.18413738 301.08507587 -198.18817699 288.88420826 C-198.19065917 282.04291372 -198.1965567 275.20165994 -198.21146011 268.36038017 C-198.2251726 261.90324869 -198.22919541 255.44617931 -198.22621536 248.98903465 C-198.22675948 246.63629568 -198.23065463 244.28355434 -198.23841095 241.93082809 C-198.29836267 222.78445584 -197.97743588 203.3732299 -193.6875 184.625 C-193.46731201 183.62791016 -193.24712402 182.63082031 -193.02026367 181.60351562 C-192.37175097 178.72905192 -191.69480333 175.86358972 -191 173 C-190.81598633 172.23526367 -190.63197266 171.47052734 -190.44238281 170.68261719 C-182.21501452 137.54502846 -164.5782323 107.33422294 -142 82 C-141.53174805 81.47003418 -141.06349609 80.94006836 -140.58105469 80.39404297 C-135.06306565 74.16702807 -129.44484272 68.28265796 -123 63 C-121.87191691 62.03701909 -120.74436464 61.07341618 -119.6171875 60.109375 C-99.42005759 43.04210413 -76.44040585 31.25594128 -52.49975586 20.34179688 C-45.47562442 17.12785193 -38.53274362 13.79342838 -31.6328125 10.3203125 C-30.03789489 9.52324974 -28.44284323 8.72645515 -26.84765625 7.92993164 C-24.49588101 6.75528326 -22.1484407 5.57456443 -19.81103516 4.37155151 C-17.63507283 3.25210492 -15.44816424 2.15736176 -13.2578125 1.06640625 C-12.61208282 0.72549957 -11.96635315 0.3845929 -11.30105591 0.03335571 C-6.75437143 -2.19205766 -4.53695105 -2.1301717 0 0 Z " fill="#2F4575" transform="translate(266,23)"/>
<path d="M0 0 C4.21092655 1.40364218 7.81675906 2.76998356 11.75390625 4.6875 C12.84533936 5.21625732 13.93677246 5.74501465 15.0612793 6.28979492 C16.21668213 6.8541626 17.37208496 7.41853027 18.5625 8 C20.99673323 9.18495891 23.43187773 10.36803667 25.8671875 11.55078125 C26.4743309 11.84608231 27.0814743 12.14138336 27.70701599 12.44563293 C31.41535724 14.24527417 35.13947699 16.00491392 38.8828125 17.73046875 C81.82723467 37.55365748 114.71705774 70.67152011 131.3828125 115.390625 C133.57324067 121.51369473 135.42806344 127.68716968 137 134 C137.20109375 134.75667969 137.4021875 135.51335937 137.609375 136.29296875 C141.49113033 151.96702625 141.27842932 167.92384062 141.22705078 183.94921875 C141.22648565 186.43430578 141.22680521 188.91939314 141.22793579 191.40447998 C141.22838864 196.72336352 141.22278117 202.0421859 141.21146011 207.36105347 C141.19510321 215.05093086 141.18998677 222.74078463 141.18748413 230.43067753 C141.18312288 242.91148086 141.16985672 255.39225783 141.15087891 267.87304688 C141.13247923 279.98632682 141.11836579 292.09959953 141.10986328 304.21289062 C141.10932729 304.96901343 141.10879129 305.72513623 141.10823905 306.50417185 C141.10407943 312.41884855 141.10016586 318.33352541 141.09632993 324.24820232 C141.07751299 353.16549242 141.03726454 382.08271642 141 411 C94.47 411 47.94 411 0 411 C0 275.37 0 139.74 0 0 Z " fill="#F3D26F" transform="translate(261,79)"/>
<path d="M0 0 C4.7121763 0.94243526 8.36418037 2.4615405 12.59765625 4.578125 C13.70537888 5.12252228 13.70537888 5.12252228 14.83547974 5.67791748 C16.42182172 6.45797709 18.00692927 7.24055114 19.59091187 8.02539062 C23.77093678 10.09648719 27.95935823 12.15041742 32.1484375 14.203125 C32.98785385 14.61477905 33.8272702 15.02643311 34.69212341 15.45056152 C42.13594341 19.08990923 49.64999614 22.56021384 57.1875 26 C102.97441623 47.05944732 139.87668421 79.0746443 165 123 C165.33741211 123.57766113 165.67482422 124.15532227 166.02246094 124.75048828 C182.58081359 153.23893208 192.21812925 187.93408789 192.12025452 220.91493225 C192.12153615 222.51292708 192.12153615 222.51292708 192.12284368 224.14320463 C192.12448403 227.69452685 192.11900085 231.2458013 192.11352539 234.79711914 C192.11324318 237.35013834 192.11340191 239.90315761 192.1139679 242.45617676 C192.11419524 247.94322881 192.11136828 253.43026561 192.10573006 258.91731453 C192.09758358 266.8505455 192.09499661 274.78377073 192.09374207 282.71700542 C192.09155649 295.58990467 192.08490981 308.46279756 192.07543945 321.33569336 C192.06625255 333.83634408 192.05917797 346.33699307 192.05493164 358.83764648 C192.05466892 359.60891383 192.05440619 360.38018117 192.05413551 361.17482025 C192.05283042 365.04425899 192.05156672 368.91369773 192.05032361 372.78313649 C192.03996638 404.85542996 192.02153637 436.9277116 192 469 C175.17 469 158.34 469 141 469 C140.98018066 461.41966797 140.96036133 453.83933594 140.93994141 446.02929688 C140.87502511 421.72781301 140.80048543 397.42636771 140.71994839 373.12493089 C140.70743071 369.34516901 140.69499775 365.56540686 140.68261719 361.78564453 C140.68015119 361.03321596 140.6776852 360.28078739 140.67514448 359.50555795 C140.63550649 347.34960942 140.60271968 335.19365169 140.57250018 323.03767651 C140.54129895 310.54867474 140.50265306 298.05971171 140.45720994 285.57075357 C140.42943894 277.8750108 140.40735705 270.17929611 140.39273749 262.48351693 C140.38087021 256.56540371 140.35860539 250.64735701 140.33261681 244.7292881 C140.32359984 242.31395799 140.31786467 239.89861288 140.31578636 237.48326683 C140.29877897 220.70961066 139.68591612 204.72041642 135.25 188.4375 C134.85530518 186.96591431 134.85530518 186.96591431 134.45263672 185.46459961 C126.67101602 157.25101057 111.82620539 133.30116531 92 112 C91.33742188 111.27167969 90.67484375 110.54335937 89.9921875 109.79296875 C73.95521978 92.87183361 53.11522113 82.37008923 32.4375 72.3125 C31.32729996 71.77237778 31.32729996 71.77237778 30.19467163 71.22134399 C28.00574093 70.15972396 25.81408484 69.10398547 23.62109375 68.05078125 C22.99201111 67.7468042 22.36292847 67.44282715 21.71478271 67.12963867 C14.2229083 63.55430619 6.61808748 60.33291327 -1 57 C-0.67 38.19 -0.34 19.38 0 0 Z " fill="#4969A4" transform="translate(261,22)"/>
<path d="M0 0 C3.08420716 2.82172144 4.69225328 4.82030425 5.75 8.875 C3.70541485 17.3941048 -6.42994707 24.57729408 -12.45703125 30.58984375 C-13.45129212 31.58477978 -14.44540463 32.57986409 -15.43937683 33.5750885 C-17.5060628 35.64323732 -19.57451793 37.70959516 -21.64428711 39.7746582 C-24.29853564 42.42316516 -26.94820835 45.0761978 -29.59660816 47.73055172 C-31.64079149 49.77834081 -33.68734072 51.823752 -35.73462486 53.86844063 C-36.71339005 54.84653891 -37.69141341 55.8253801 -38.66868019 56.80497551 C-40.02776205 58.16658894 -41.390382 59.52466812 -42.75317383 60.88256836 C-43.52703934 61.65563828 -44.30090485 62.42870819 -45.09822083 63.22520447 C-47.69900722 65.65233383 -48.69788445 65.97149853 -52.3125 66.3125 C-56.57536111 65.95124058 -58.01992054 64.98007946 -61 62 C-62.57319515 58.85360969 -62.95247755 56.35125853 -62 53 C-60.3102417 50.76780701 -60.3102417 50.76780701 -58.06542969 48.36499023 C-57.24554565 47.48422821 -56.42566162 46.60346619 -55.58093262 45.6960144 C-51.53899572 41.47385068 -47.45841401 37.29595185 -43.328125 33.16015625 C-41.99995758 31.82699623 -41.99995758 31.82699623 -40.6449585 30.46690369 C-38.79081445 28.60773755 -36.935351 26.74988639 -35.07861328 24.89331055 C-32.70771726 22.52251707 -30.34383544 20.14485602 -27.98155594 17.765481 C-25.70574996 15.47587398 -23.42274745 13.19346483 -21.140625 10.91015625 C-20.29783997 10.0601857 -19.45505493 9.21021515 -18.58673096 8.33448792 C-17.79530701 7.54614059 -17.00388306 6.75779327 -16.18847656 5.94555664 C-15.49836487 5.25401993 -14.80825317 4.56248322 -14.097229 3.84999084 C-9.34061402 -0.34587626 -6.28710632 -1.90858585 0 0 Z " fill="#F9E9BC" transform="translate(211,157)"/>
<path d="M0 0 C3.92181713 0.81139169 5.74908465 1.87235533 8.52124023 4.72851562 C10.03013492 7.746305 10.02150299 9.351742 9.52124023 12.72851562 C4.64975535 19.58822406 -1.99767591 25.39456423 -7.93579102 31.31835938 C-8.93005188 32.31329541 -9.92416439 33.30837971 -10.9181366 34.30360413 C-12.98482257 36.37175294 -15.05327769 38.43811078 -17.12304688 40.50317383 C-19.77729541 43.15168078 -22.42696812 45.80471343 -25.07536793 48.45906734 C-27.11955125 50.50685644 -29.16610048 52.55226763 -31.21338463 54.59695625 C-32.19214981 55.57505453 -33.17017318 56.55389572 -34.14743996 57.53349113 C-35.50652182 58.89510456 -36.86914176 60.25318374 -38.23193359 61.61108398 C-39.0057991 62.3841539 -39.77966461 63.15722382 -40.57698059 63.95372009 C-43.66372721 66.83436164 -46.20439584 67.19262409 -50.43579102 67.13867188 C-52.47875977 66.72851562 -52.47875977 66.72851562 -55.47875977 64.10351562 C-58.5036708 58.99897826 -58.5036708 58.99897826 -57.47875977 54.72851562 C-50.30000767 45.01074536 -40.8159609 36.666596 -32.32537174 28.07849884 C-29.65536165 25.37779131 -26.99397736 22.66964577 -24.35107422 19.94238281 C-21.77357846 17.28290068 -19.17693047 14.64361427 -16.56558037 12.01737976 C-15.57990255 11.01949003 -14.60110994 10.01474785 -13.62965584 9.00300598 C-5.11195147 0.14948119 -5.11195147 0.14948119 0 0 Z " fill="#F9EABE" transform="translate(206.478759765625,198.271484375)"/>
<path d="M0 0 C3.03978021 0.68164768 4.80055419 2.23591662 6.93359375 4.43359375 C8.12747694 6.82136012 8.07288256 8.32201658 8.09472656 10.98754883 C8.10433411 11.9322554 8.11394165 12.87696198 8.12384033 13.85029602 C8.12809021 14.87422958 8.13234009 15.89816315 8.13671875 16.953125 C8.14241882 18.00384689 8.1481189 19.05456879 8.1539917 20.13713074 C8.16345027 22.36395254 8.16997907 24.59078839 8.17382812 26.81762695 C8.18352446 30.22176627 8.21453645 33.62529959 8.24609375 37.02929688 C8.25262461 39.19140266 8.25787476 41.35351277 8.26171875 43.515625 C8.27406555 44.53348587 8.28641235 45.55134674 8.2991333 46.60005188 C8.27128899 55.45281407 8.27128899 55.45281407 4.93359375 59.43359375 C1.72421966 61.75762326 -1.18146646 61.90930066 -5.06640625 61.43359375 C-7.76631287 59.63365601 -9.60829275 58.34982075 -11.06640625 55.43359375 C-11.18164796 53.85730971 -11.2358826 52.27636283 -11.25927734 50.69604492 C-11.27534027 49.71129684 -11.2914032 48.72654877 -11.30795288 47.71195984 C-11.3523642 43.20633594 -11.39346593 38.70085989 -11.41650391 34.19506836 C-11.43306874 31.81769017 -11.46036537 29.44036189 -11.49853516 27.06323242 C-11.5532588 23.63824588 -11.57517167 20.21442716 -11.58984375 16.7890625 C-11.61251312 15.72745407 -11.6351825 14.66584564 -11.65853882 13.57206726 C-11.63736738 6.1866408 -11.63736738 6.1866408 -8.66259766 2.26318359 C-5.4058604 -0.03190659 -3.84171056 -0.23965302 0 0 Z " fill="#93634D" transform="translate(294.06640625,310.56640625)"/>
<path d="M0 0 C3.03978021 0.68164768 4.80055419 2.23591662 6.93359375 4.43359375 C8.12747694 6.82136012 8.07288256 8.32201658 8.09472656 10.98754883 C8.10433411 11.9322554 8.11394165 12.87696198 8.12384033 13.85029602 C8.12809021 14.87422958 8.13234009 15.89816315 8.13671875 16.953125 C8.14241882 18.00384689 8.1481189 19.05456879 8.1539917 20.13713074 C8.16345027 22.36395254 8.16997907 24.59078839 8.17382812 26.81762695 C8.18352446 30.22176627 8.21453645 33.62529959 8.24609375 37.02929688 C8.25262461 39.19140266 8.25787476 41.35351277 8.26171875 43.515625 C8.27406555 44.53348587 8.28641235 45.55134674 8.2991333 46.60005188 C8.27128899 55.45281407 8.27128899 55.45281407 4.93359375 59.43359375 C1.72421966 61.75762326 -1.18146646 61.90930066 -5.06640625 61.43359375 C-7.76631287 59.63365601 -9.60829275 58.34982075 -11.06640625 55.43359375 C-11.18164796 53.85730971 -11.2358826 52.27636283 -11.25927734 50.69604492 C-11.27534027 49.71129684 -11.2914032 48.72654877 -11.30795288 47.71195984 C-11.3523642 43.20633594 -11.39346593 38.70085989 -11.41650391 34.19506836 C-11.43306874 31.81769017 -11.46036537 29.44036189 -11.49853516 27.06323242 C-11.5532588 23.63824588 -11.57517167 20.21442716 -11.58984375 16.7890625 C-11.61251312 15.72745407 -11.6351825 14.66584564 -11.65853882 13.57206726 C-11.63736738 6.1866408 -11.63736738 6.1866408 -8.66259766 2.26318359 C-5.4058604 -0.03190659 -3.84171056 -0.23965302 0 0 Z " fill="#93634D" transform="translate(231.06640625,310.56640625)"/>
<path d="M0 0 C2.328125 -0.2734375 2.328125 -0.2734375 5 0 C6.484375 1.8984375 6.484375 1.8984375 7.75 4.375 C9.88959684 7.95623177 9.88959684 7.95623177 13.3828125 10.04296875 C15.60034296 10.50524391 17.74128598 10.8443997 20 11 C20.875 13.0625 20.875 13.0625 21 16 C19.73046875 17.50390625 19.73046875 17.50390625 18.0625 19.125 C14.97474259 22.34082109 14.60715417 24.44450143 14.6875 28.875 C14.75324219 29.82117188 14.81898438 30.76734375 14.88671875 31.7421875 C14.92410156 32.48726562 14.96148437 33.23234375 15 34 C14.67 34.33 14.34 34.66 14 35 C10.50285355 34.66373592 7.6114127 34.2982501 4.4375 32.75 C1.86070078 31.66115074 1.86070078 31.66115074 -1 33.375 C-1.99 33.91125 -2.98 34.4475 -4 35 C-6.8125 35.25 -6.8125 35.25 -9 35 C-9.33 34.67 -9.66 34.34 -10 34 C-9.91419248 32.12407016 -9.80608723 30.24914321 -9.6875 28.375 C-9.61072115 23.75730089 -9.8533534 21.38661093 -13.0625 18 C-13.63097656 17.505 -14.19945312 17.01 -14.78515625 16.5 C-15.18605469 16.005 -15.58695312 15.51 -16 15 C-15.68359375 12.8125 -15.68359375 12.8125 -15 11 C-14.25234375 10.87625 -13.5046875 10.7525 -12.734375 10.625 C-6.88176869 9.5620258 -6.88176869 9.5620258 -2.37890625 6.01953125 C-1.41910049 4.03312007 -0.62752231 2.11349513 0 0 Z " fill="#F4D36E" transform="translate(416,25)"/>
<path d="M0 0 C2.25 0 2.25 0 5 1 C5.87109375 2.77734375 5.87109375 2.77734375 6.6875 4.9375 C7.54308529 7.16132484 7.54308529 7.16132484 9 9 C11.64799274 10.01845875 14.04228326 10.42070333 16.85546875 10.74609375 C19 11 19 11 20 12 C20.4375 14.125 20.4375 14.125 20 17 C19.01940391 18.11988531 17.99248661 19.19989759 16.9375 20.25 C14.45991509 22.87352225 14.45991509 22.87352225 13.9296875 26.34375 C14.27556834 28.73449695 14.27556834 28.73449695 14.86328125 30.984375 C15 33 15 33 13.54296875 34.765625 C13.03378906 35.17296875 12.52460938 35.5803125 12 36 C11.13375 35.690625 10.2675 35.38125 9.375 35.0625 C3.08201022 32.8668807 3.08201022 32.8668807 -3.0625 34.5625 C-6 36 -6 36 -8.68359375 35.08984375 C-9.44800781 34.73019531 -10.21242188 34.37054688 -11 34 C-10.94199219 33.19175781 -10.88398438 32.38351562 -10.82421875 31.55078125 C-10.30769522 24.74871304 -10.30769522 24.74871304 -13.5 19.0625 C-14.325 18.381875 -15.15 17.70125 -16 17 C-16.3125 14.1875 -16.3125 14.1875 -16 12 C-15.113125 11.71125 -14.22625 11.4225 -13.3125 11.125 C-11.6728125 10.568125 -11.6728125 10.568125 -10 10 C-9.154375 9.79375 -8.30875 9.5875 -7.4375 9.375 C-3.65545866 7.24154078 -2.04276851 3.73783174 0 0 Z " fill="#F4D36E" transform="translate(16,238)"/>
<path d="M0 0 C2.65145286 1.0657296 2.99706768 2.19900739 4.19921875 4.74609375 C5.70741978 7.39371938 6.44707666 8.57694572 9.296875 9.74609375 C10.89483379 10.07024387 12.50435934 10.34322721 14.12109375 10.5546875 C16.01171875 10.80859375 16.01171875 10.80859375 17.01171875 11.80859375 C17.38671875 14.05859375 17.38671875 14.05859375 17.01171875 16.80859375 C16.18671875 17.48921875 15.36171875 18.16984375 14.51171875 18.87109375 C11.03416359 22.95722106 11.65487457 26.06740684 11.93359375 31.26171875 C11.959375 32.1021875 11.98515625 32.94265625 12.01171875 33.80859375 C11.01171875 34.80859375 11.01171875 34.80859375 8.19921875 34.99609375 C5.01171875 34.80859375 5.01171875 34.80859375 3.01171875 33.74609375 C0.1114146 32.38657618 -1.94107136 33.07991312 -4.98828125 33.80859375 C-5.97828125 34.30359375 -5.97828125 34.30359375 -6.98828125 34.80859375 C-8.98788137 34.84858575 -10.98875367 34.85206174 -12.98828125 34.80859375 C-14.1514421 31.70683148 -13.8829726 30.3063525 -13.17578125 26.93359375 C-12.77103097 24.84903499 -12.77103097 24.84903499 -12.98828125 22.80859375 C-14.36431012 20.9866296 -15.87467582 19.66417339 -17.6171875 18.1953125 C-18.98828125 16.80859375 -18.98828125 16.80859375 -19.36328125 13.93359375 C-19.23953125 13.23234375 -19.11578125 12.53109375 -18.98828125 11.80859375 C-13.29710478 9.82329963 -13.29710478 9.82329963 -10.36328125 9.68359375 C-7.36044113 8.57728423 -7.16040364 7.62817967 -5.80078125 4.80859375 C-5.49785156 4.08671875 -5.19492187 3.36484375 -4.8828125 2.62109375 C-3.65803724 0.13945305 -2.73683252 -0.26346718 0 0 Z " fill="#F4D36E" transform="translate(494.98828125,364.19140625)"/>
<path d="M0 0 C0.66 0.33 1.32 0.66 2 1 C-6.58 9.58 -15.16 18.16 -24 27 C-24 24 -24 24 -22.71484375 22.45703125 C-22.12832031 21.91433594 -21.54179688 21.37164062 -20.9375 20.8125 C-18.31708047 18.31310386 -15.89608727 15.76911853 -13.5625 13 C-10.53162921 9.4754127 -7.24708732 6.44252957 -3.69921875 3.4453125 C-1.90381734 1.95747294 -1.90381734 1.95747294 0 0 Z " fill="#334B7F" transform="translate(145,84)"/>
</svg>
