<?xml version="1.0" encoding="UTF-8"?>
<svg version="1.1" xmlns="http://www.w3.org/2000/svg" width="512" height="512">
<path d="M0 0 C0.90234879 0.20508682 1.80469757 0.41017365 2.73439026 0.62147522 C5.68887133 1.29497496 8.64113416 1.97764041 11.59326172 2.66137695 C13.67051085 3.13904512 15.74781283 3.6164835 17.82516479 4.09370422 C22.17173011 5.09393724 26.51711602 6.09912054 30.86181641 7.10742188 C36.38606751 8.38873208 41.91376873 9.65439776 47.44258308 10.91585064 C51.73417919 11.89749423 56.02338353 12.88929092 60.3120079 13.88382912 C62.34663093 14.35408398 64.38204821 14.82091781 66.41830826 15.28403282 C95.39578645 21.88718532 123.45138994 32.98031604 140.39794922 58.9621582 C146.69495804 69.1698094 151.66571389 79.53008602 155.39794922 90.9621582 C155.65447266 90.0649707 155.91099609 89.1677832 156.17529297 88.2434082 C160.75144818 73.32853196 167.83185407 60.52703846 178.39794922 48.9621582 C179.20619141 48.04950195 180.01443359 47.1368457 180.84716797 46.1965332 C185.82651395 40.8673677 190.94760145 36.61177108 197.08544922 32.7121582 C197.67140869 32.33631592 198.25736816 31.96047363 198.86108398 31.57324219 C213.22709292 22.87599291 228.40628385 18.88895847 244.64794922 15.2746582 C246.86401522 14.76990714 249.07974844 14.26369303 251.29516602 13.75610352 C255.93312195 12.69530668 260.57287388 11.64288225 265.21386719 10.59545898 C272.51487827 8.94256226 279.80263837 7.23539342 287.08935547 5.52075195 C290.64540277 4.68706969 294.20162771 3.85415022 297.75793457 3.02157593 C300.04972911 2.48428085 302.34115596 1.94541492 304.63220215 1.40493774 C307.83000067 0.65195515 311.02968138 -0.0924449 314.22998047 -0.8347168 C315.17458633 -1.05909927 316.1191922 -1.28348175 317.09242249 -1.5146637 C328.43662951 -4.12461929 328.43662951 -4.12461929 332.84814453 -1.68017578 C334.02521973 -0.74153687 334.02521973 -0.74153687 335.22607422 0.21606445 C336.10908203 0.90635742 336.99208984 1.59665039 337.90185547 2.30786133 C338.80806641 3.0394043 339.71427734 3.77094727 340.64794922 4.5246582 C344.220983 7.35050908 347.80334079 10.16379886 351.39794922 12.9621582 C352.28546875 13.66324707 353.17298828 14.36433594 354.08740234 15.08666992 C354.94785156 15.73522949 355.80830078 16.38378906 356.69482422 17.05200195 C357.45633789 17.63715576 358.21785156 18.22230957 359.00244141 18.82519531 C362.18597815 20.33617479 364.04291423 19.83827174 367.39794922 18.9621582 C368.16107422 18.6321582 368.92419922 18.3021582 369.71044922 17.9621582 C375.93888164 15.64460195 381.48717542 15.30502091 387.61279297 18.02075195 C393.24210877 20.98938457 395.24172964 24.00688508 397.39794922 29.9621582 C397.64544922 30.9934082 397.89294922 32.0246582 398.14794922 33.0871582 C399.49186377 36.17816167 399.99208485 36.53299576 402.71044922 38.2121582 C407.61644748 41.51491597 409.7092849 45.32235936 411.39794922 50.9621582 C412.34142134 57.94451484 412.07179317 65.05773142 412.02905273 72.08642578 C412.03419599 74.23427419 412.04148032 76.38211838 412.05073547 78.529953 C412.06920904 84.34425766 412.05633474 90.15810219 412.03664517 95.97238755 C412.02021778 102.07084548 412.02907756 108.1692752 412.03416443 114.26774597 C412.03868183 124.51076574 412.02283985 134.7536027 411.99487305 144.99658203 C411.9628486 156.816353 411.96282823 168.63579384 411.98008782 180.45558816 C411.99598912 191.84979987 411.98919448 203.24389127 411.9721508 214.63809776 C411.96530205 219.47550369 411.96629047 224.31281256 411.97369576 229.15021706 C411.98139474 234.85574818 411.96911471 240.56090683 411.94184685 246.26637459 C411.93499877 248.35239812 411.9348263 250.43845669 411.94206238 252.52447891 C411.99980135 271.34813342 409.19174755 286.84700975 395.83544922 301.2121582 C383.3396794 312.70466247 367.19647683 317.83374018 351.58544922 323.7121582 C348.27586593 324.96965965 344.96755644 326.23043306 341.6599884 327.4932251 C339.61787321 328.27169458 337.57440715 329.04663352 335.52934265 329.81732178 C329.72809289 332.01505879 324.03548705 334.37243453 318.39794922 336.9621582 C337.64885388 360.31211481 358.37219795 376.02438989 386.95263672 386.23168945 C398.46072845 390.41765816 404.86032444 394.82942464 410.39794922 405.9621582 C411.43449866 409.07180652 411.54932256 411.29679848 411.59082031 414.56005859 C411.60688324 415.70877945 411.62294617 416.85750031 411.63949585 418.04103088 C411.68407755 423.30958506 411.72547097 428.5779907 411.74804688 433.84667969 C411.76133636 436.61980543 411.78909597 439.39218659 411.83007812 442.16503906 C411.88928238 446.17175471 411.90675832 450.17768354 411.92138672 454.18481445 C411.94405609 455.41434341 411.96672546 456.64387238 411.99008179 457.91065979 C411.96926999 466.4600779 410.53052714 473.35808974 404.68832397 479.86683655 C399.36823282 484.95441491 393.4120751 487.05588599 386.14794922 487.5871582 C376.67482611 487.24966365 368.11615318 483.37560813 359.39794922 479.9621582 C358.10369675 479.45755382 356.80942491 478.9529991 355.51513672 478.44848633 C347.67592172 475.38716733 339.85101175 472.29030675 332.03076172 469.1809082 C321.00241412 464.79633179 309.95178404 460.46949802 298.89794922 456.1496582 C296.94847076 455.38740961 294.99900795 454.62512098 293.04956055 453.86279297 C289.11810292 452.32550491 285.18653598 450.78849689 281.25488281 449.25170898 C263.96706381 442.49408585 246.68204434 435.72929954 229.39794922 428.9621582 C228.31491516 428.53813721 227.2318811 428.11411621 226.11602783 427.67724609 C219.27773612 424.99980794 212.43984439 422.32135139 205.60238647 419.64178467 C203.42492961 418.78855704 201.24738204 417.93556086 199.06973267 417.08282471 C197.00930991 416.27594051 194.94903973 415.46866655 192.88893127 414.66098022 C190.91072636 413.88561819 188.93208733 413.11136271 186.95298767 412.33828735 C182.17581335 410.46745814 177.41515719 408.56582979 172.67626953 406.59985352 C171.76620148 406.22535065 170.85613342 405.85084778 169.91848755 405.46499634 C168.21543854 404.7620278 166.51581522 404.05067461 164.82052612 403.32919312 C156.29927467 399.82356706 151.10668404 401.12952993 142.78857422 404.5559082 C141.8460379 404.93406677 140.90350159 405.31222534 139.93240356 405.70184326 C137.89789062 406.51913244 135.86520209 407.34097488 133.83416748 408.16687012 C128.40291802 410.37482706 122.95818857 412.54912355 117.51513672 414.7277832 C115.85576584 415.39351349 115.85576584 415.39351349 114.16287231 416.07269287 C103.74614992 420.24396628 93.26984145 424.2479334 82.77294922 428.2121582 C68.98242518 433.43035561 55.2380111 438.74990403 41.53289795 444.18835449 C26.64136506 450.09664068 11.70927278 455.8969974 -3.23413086 461.67272949 C-14.13474662 465.88633036 -25.02833029 470.11459534 -35.88720703 474.43481445 C-36.76891571 474.78518768 -37.65062439 475.13556091 -38.55905151 475.49655151 C-42.66865761 477.13048781 -46.77588515 478.77000244 -50.87939453 480.41918945 C-52.3298491 480.99748069 -53.78036617 481.57561517 -55.23095703 482.15356445 C-55.86518082 482.41097916 -56.4994046 482.66839386 -57.15284729 482.93360901 C-67.60398092 487.07943765 -76.3784993 488.47309958 -86.98486328 484.28637695 C-93.77374442 480.85140575 -98.11681216 475.11688342 -100.60205078 467.9621582 C-101.1981173 463.53886714 -101.21032118 459.1552503 -101.20361328 454.6965332 C-101.21218353 453.42674622 -101.22075378 452.15695923 -101.22958374 450.84869385 C-101.24104038 448.16866247 -101.24398183 445.49017934 -101.23339844 442.81030273 C-101.22184603 439.40974114 -101.25560507 436.01137167 -101.30208778 432.61117172 C-101.33900194 429.32714714 -101.33118421 426.04322731 -101.32861328 422.7590332 C-101.34703278 421.55551208 -101.36545227 420.35199097 -101.38442993 419.11199951 C-101.2843677 409.83881143 -99.00002528 401.84233778 -92.67178345 394.82025146 C-86.35883503 389.02469188 -77.59834652 386.63979998 -69.69628906 383.74682617 C-45.92444035 374.84000386 -19.93188823 357.85635984 -7.60205078 334.9621582 C-8.79531982 334.82511475 -8.79531982 334.82511475 -10.01269531 334.68530273 C-14.59444885 333.76222057 -18.70344506 332.12804226 -23.03173828 330.3918457 C-24.39372849 329.85287155 -24.39372849 329.85287155 -25.78323364 329.30300903 C-27.70572624 328.540834 -29.62708098 327.77578344 -31.54736328 327.00805664 C-34.43018394 325.85588932 -37.31651099 324.71292274 -40.20361328 323.5715332 C-48.71355839 320.19646987 -57.20291764 316.77478526 -65.60986328 313.1496582 C-66.23754608 312.88248993 -66.86522888 312.61532166 -67.51193237 312.34005737 C-81.7177096 306.12014906 -91.97048591 295.34839768 -97.60205078 280.9621582 C-101.66052596 270.50678757 -101.03248237 259.66829111 -101.00610352 248.64501953 C-101.01181242 246.48891345 -101.01877869 244.33281038 -101.02690125 242.17671204 C-101.04478517 236.34638981 -101.04367382 230.51621846 -101.03795886 224.68587708 C-101.03486168 219.81233954 -101.040965 214.93883075 -101.04699761 210.06529731 C-101.06102409 198.56938594 -101.05949572 187.07354893 -101.0480957 175.57763672 C-101.03660196 163.7253843 -101.05071565 151.87335782 -101.07749218 140.02113515 C-101.0996472 129.83232145 -101.10628741 119.64357869 -101.10041577 109.45474261 C-101.09704628 103.37473457 -101.09946157 97.29487154 -101.11666679 91.2148838 C-101.13213173 85.50117634 -101.12818511 79.78780423 -101.10936165 74.07411003 C-101.1056753 71.97952463 -101.10878552 69.88491439 -101.11924744 67.79035187 C-101.13245491 64.92725675 -101.12091196 62.06527242 -101.10325623 59.20222473 C-101.11286123 58.37702215 -101.12246624 57.55181958 -101.13236231 56.70161086 C-101.04668989 49.93206875 -99.06881882 44.71749156 -94.53173828 39.6496582 C-93.85369141 39.0927832 -93.17564453 38.5359082 -92.47705078 37.9621582 C-91.79384766 37.3846582 -91.11064453 36.8071582 -90.40673828 36.2121582 C-88.60205078 34.9621582 -88.60205078 34.9621582 -86.60205078 34.9621582 C-86.59947266 34.39368164 -86.59689453 33.82520508 -86.59423828 33.23950195 C-86.3219263 27.80233938 -85.3127063 24.33982143 -81.45751953 20.41137695 C-77.27536124 17.14489121 -73.16833495 15.80496416 -67.85986328 16.13012695 C-60.92220993 17.25437272 -60.92220993 17.25437272 -57.78466797 18.93652344 C-55.6418634 20.0150473 -53.99240708 20.69317793 -51.60205078 20.9621582 C-48.22991752 19.50279455 -45.70911396 17.19628682 -42.97705078 14.7746582 C-41.39233115 13.46589048 -39.80638022 12.15861233 -38.21923828 10.8527832 C-37.44032227 10.19600586 -36.66140625 9.53922852 -35.85888672 8.86254883 C-32.66264962 6.17112633 -29.42486717 3.55773224 -26.10205078 1.0246582 C-24.57064453 -0.19543945 -24.57064453 -0.19543945 -23.00830078 -1.44018555 C-15.99657107 -4.72894409 -7.29452974 -1.69918411 0 0 Z " fill="#8D663D" transform="translate(100.60205078125,14.037841796875)"/>
<path d="M0 0 C0.90234879 0.20508682 1.80469757 0.41017365 2.73439026 0.62147522 C5.68887133 1.29497496 8.64113416 1.97764041 11.59326172 2.66137695 C13.67051085 3.13904512 15.74781283 3.6164835 17.82516479 4.09370422 C22.17173011 5.09393724 26.51711602 6.09912054 30.86181641 7.10742188 C36.38606751 8.38873208 41.91376873 9.65439776 47.44258308 10.91585064 C51.73417919 11.89749423 56.02338353 12.88929092 60.3120079 13.88382912 C62.34663093 14.35408398 64.38204821 14.82091781 66.41830826 15.28403282 C95.39578645 21.88718532 123.45138994 32.98031604 140.39794922 58.9621582 C146.69495804 69.1698094 151.66571389 79.53008602 155.39794922 90.9621582 C155.65447266 90.0649707 155.91099609 89.1677832 156.17529297 88.2434082 C160.75144818 73.32853196 167.83185407 60.52703846 178.39794922 48.9621582 C179.20619141 48.04950195 180.01443359 47.1368457 180.84716797 46.1965332 C185.82651395 40.8673677 190.94760145 36.61177108 197.08544922 32.7121582 C197.67140869 32.33631592 198.25736816 31.96047363 198.86108398 31.57324219 C213.22709292 22.87599291 228.40628385 18.88895847 244.64794922 15.2746582 C246.86401522 14.76990714 249.07974844 14.26369303 251.29516602 13.75610352 C255.93312195 12.69530668 260.57287388 11.64288225 265.21386719 10.59545898 C272.51487827 8.94256226 279.80263837 7.23539342 287.08935547 5.52075195 C290.64540277 4.68706969 294.20162771 3.85415022 297.75793457 3.02157593 C300.04972911 2.48428085 302.34115596 1.94541492 304.63220215 1.40493774 C307.83000067 0.65195515 311.02968138 -0.0924449 314.22998047 -0.8347168 C315.17458633 -1.05909927 316.1191922 -1.28348175 317.09242249 -1.5146637 C328.42933232 -4.12294043 328.42933232 -4.12294043 332.83227539 -1.69604492 C333.61062744 -1.07665039 334.38897949 -0.45725586 335.19091797 0.1809082 C336.50056519 1.2035376 336.50056519 1.2035376 337.83666992 2.24682617 C339.19731567 3.34341553 339.19731567 3.34341553 340.58544922 4.4621582 C342.45706391 5.93450589 344.32945266 7.40587016 346.20263672 8.8762207 C347.54406738 9.93824707 347.54406738 9.93824707 348.91259766 11.02172852 C352.752747 14.01991191 356.72302309 16.80864339 360.72998047 19.5793457 C361.28041016 20.03567383 361.83083984 20.49200195 362.39794922 20.9621582 C362.39794922 21.6221582 362.39794922 22.2821582 362.39794922 22.9621582 C362.93079906 23.22175103 363.46364891 23.48134386 364.01264572 23.74880314 C364.79979588 24.14921031 365.58694603 24.54961748 366.39794922 24.9621582 C367.37730061 25.45144774 368.35665199 25.94073729 369.36568069 26.44485378 C377.45122556 31.32832629 377.45122556 31.32832629 379.08550167 35.87496305 C380.19127395 41.63979977 379.90074556 47.50360354 379.76025391 53.34326172 C379.75686588 55.31500541 379.75877517 57.28676423 379.76556396 59.25849915 C379.76899877 64.59384375 379.69859721 69.92593255 379.61467648 75.26052213 C379.53951475 80.84171995 379.53260049 86.42299758 379.51837158 92.00462341 C379.48111582 102.56608294 379.38270199 113.12604684 379.26217771 123.68684858 C379.12791557 135.71321881 379.06203703 147.73966156 379.00183249 159.76659501 C378.87649683 184.4992777 378.66551053 209.23063405 378.39794922 233.9621582 C375.3872983 232.17763157 372.56241291 230.41117913 369.86669922 228.17700195 C369.22780762 227.65154785 368.58891602 227.12609375 367.93066406 226.5847168 C367.25986816 226.02864746 366.58907227 225.47257813 365.89794922 224.8996582 C359.89258781 219.96947454 353.82954197 215.14861143 347.63232422 210.4621582 C345.27688565 208.66726173 342.99380131 206.80407404 340.72607422 204.8996582 C340.10812988 204.38935059 339.49018555 203.87904297 338.85351562 203.35327148 C337.6671238 202.37067703 336.49146193 201.37492207 335.32910156 200.36401367 C331.16697739 196.94941344 328.66780054 196.64691528 323.39794922 196.9621582 C321.12370576 197.38961484 318.86322443 197.89548347 316.62060547 198.46606445 C315.66779694 198.70377563 315.66779694 198.70377563 314.69573975 198.94628906 C313.32900739 199.28769329 311.96312887 199.63253089 310.59805298 199.98049927 C306.90584085 200.92040696 303.20657482 201.83166486 299.50732422 202.7434082 C298.74784988 202.93101212 297.98837555 203.11861603 297.20588684 203.31190491 C289.56993564 205.1869116 281.896916 206.87138526 274.21044922 208.5246582 C213.7824239 220.57446766 213.7824239 220.57446766 169.39794922 260.9621582 C163.53070098 270.59460906 158.44445473 280.79578835 156.39794922 291.9621582 C155.73794922 291.9621582 155.07794922 291.9621582 154.39794922 291.9621582 C154.03443359 290.79040039 153.67091797 289.61864258 153.29638672 288.41137695 C145.3620591 263.37849329 130.80290809 242.73037344 107.83544922 229.3371582 C107.25400146 228.98903076 106.67255371 228.64090332 106.07348633 228.28222656 C93.23020736 221.08213019 78.52385009 217.77900437 64.27294922 214.6496582 C62.58894828 214.27159491 60.9051968 213.89241897 59.22167969 213.51220703 C55.72343207 212.72303528 52.22417086 211.93860903 48.72412109 211.1574707 C40.81322562 209.38755576 32.91657852 207.55588667 25.019104 205.72720337 C22.60647313 205.16898346 20.19345471 204.61247585 17.78027344 204.05664062 C16.6410997 203.79395134 16.6410997 203.79395134 15.47891235 203.5259552 C13.98607996 203.18202356 12.4930615 202.83889845 10.99984741 202.49662781 C7.2377046 201.63135533 3.48366486 200.74168314 -0.26318359 199.81225586 C-1.40462326 199.53276848 -1.40462326 199.53276848 -2.56912231 199.24763489 C-4.00282099 198.89555745 -5.43500874 198.53723801 -6.86520386 198.17118835 C-14.25770298 196.34350387 -14.25770298 196.34350387 -21.50390625 197.85742188 C-21.98746582 198.27741455 -22.47102539 198.69740723 -22.96923828 199.13012695 C-23.53578125 199.60450195 -24.10232422 200.07887695 -24.68603516 200.56762695 C-25.27707031 201.08969727 -25.86810547 201.61176758 -26.47705078 202.1496582 C-27.79564575 203.25977441 -29.11602673 204.36777192 -30.43798828 205.47387695 C-31.11958008 206.05057129 -31.80117187 206.62726563 -32.50341797 207.22143555 C-35.95074909 210.08084352 -39.52695473 212.76552832 -43.10205078 215.4621582 C-49.50583356 220.3190341 -55.81229745 225.2824972 -62.04541016 230.35668945 C-66.49836001 233.9621582 -66.49836001 233.9621582 -67.60205078 233.9621582 C-67.85911193 208.04110852 -68.05303714 182.12025008 -68.17198467 156.19818211 C-68.22868457 144.16179842 -68.30597286 132.12620709 -68.43188477 120.09033203 C-68.54158902 109.59873118 -68.61250611 99.10770417 -68.63702422 88.61554569 C-68.65135505 83.06061217 -68.68498419 77.50732015 -68.76508141 71.95291328 C-68.83990808 66.72147141 -68.86274794 61.49234222 -68.84623528 56.26041603 C-68.84925459 54.34351262 -68.87104709 52.42652968 -68.913311 50.51008987 C-69.21682 36.03408149 -69.21682 36.03408149 -65.18869972 30.86556816 C-62.42783821 28.57951648 -59.70186089 26.7492517 -56.60205078 24.9621582 C-55.45046555 24.07854834 -54.31377241 23.1746285 -53.20361328 22.23950195 C-45.96341909 16.54806321 -38.67024507 10.92798037 -31.35205078 5.3371582 C-30.42215332 4.62551514 -29.49225586 3.91387207 -28.53417969 3.18066406 C-27.6645459 2.5181665 -26.79491211 1.85566895 -25.89892578 1.1730957 C-25.1187207 0.57803223 -24.33851562 -0.01703125 -23.53466797 -0.63012695 C-17.0347641 -5.36464511 -7.30963942 -1.70270376 0 0 Z " fill="#FDFAE0" transform="translate(100.60205078125,14.037841796875)"/>
<path d="M0 0 C-1.50449713 4.29826525 -4.20538801 5.35789856 -8.03985596 7.54441833 C-11.01135415 9.55700689 -13.43299854 11.45531071 -14.69634151 14.89705205 C-15.79829692 20.63393345 -15.50283458 26.4777924 -15.36230469 32.28930664 C-15.35891663 34.25119823 -15.36082602 36.21310502 -15.36761475 38.17498779 C-15.37104943 43.48348062 -15.30065008 48.7887009 -15.21672726 54.09643483 C-15.14156337 59.64960455 -15.1346511 65.20285456 -15.12042236 70.75645447 C-15.08316722 81.26479371 -14.98475429 91.77162968 -14.86422849 102.27930778 C-14.72996438 114.24521858 -14.66408733 126.21120229 -14.60388327 138.17767918 C-14.47854902 162.78595196 -14.26756397 187.39289165 -14 212 C-13.55000641 211.63303009 -13.10001282 211.26606018 -12.63638306 210.88796997 C-10.56296617 209.19790235 -8.48852126 207.50910109 -6.4140625 205.8203125 C-5.70644775 205.24321533 -4.99883301 204.66611816 -4.26977539 204.0715332 C1.00222594 199.78177939 6.34976078 195.61054452 11.75390625 191.48828125 C15.98222835 188.25930957 20.15637052 184.96151695 24.33251953 181.66552734 C25.88596161 180.44065438 27.44284223 179.22014579 29 178 C29.64839844 177.40058594 30.29679687 176.80117187 30.96484375 176.18359375 C35.68996945 173.43558399 41.62350625 175.19275161 46.63671875 176.46875 C47.57312195 176.70235985 47.57312195 176.70235985 48.52844238 176.94068909 C49.87692535 177.27753064 51.22455252 177.61781353 52.57138062 177.96121216 C56.25119464 178.89813428 59.93814975 179.80607419 63.625 180.71484375 C64.77768623 180.9996183 64.77768623 180.9996183 65.95365906 181.29014587 C73.58517693 183.16477224 81.24924693 184.8800458 88.92449951 186.56518555 C91.19198481 187.06348558 93.45864866 187.56536841 95.72509766 188.06835938 C104.45706645 190.00615901 104.45706645 190.00615901 113.19824219 191.90185547 C146.14989674 198.96588096 174.76020391 209.79347841 194 239 C200.01013427 248.31447821 207 259.64982909 207 271 C207.66 271 208.32 271 209 271 C209.1546875 269.25589844 209.1546875 269.25589844 209.3125 267.4765625 C209.86948928 263.07673397 211.17587641 259.3963519 213 255.375 C213.30977783 254.68623779 213.61955566 253.99747559 213.9387207 253.2878418 C225.31534629 228.76464319 245.13220141 210.11531642 270.3671875 200.19921875 C286.60949989 194.83750918 303.6362165 191.7101891 320.32641602 188.04296875 C332.47603366 185.36871334 344.56946735 182.50404322 356.65234375 179.54296875 C357.69632324 179.28950684 358.74030273 179.03604492 359.81591797 178.77490234 C362.03035333 178.23598056 364.24279288 177.68881858 366.45361328 177.13525391 C380.72144467 173.65931323 380.72144467 173.65931323 384.81738281 176.06933594 C386.8476125 177.58240226 388.73241279 179.19316653 390.625 180.875 C392.04043352 182.07957551 393.45711587 183.28268502 394.875 184.484375 C395.57238281 185.08314453 396.26976562 185.68191406 396.98828125 186.29882812 C399.79499156 188.67226957 402.69433693 190.90780274 405.625 193.125 C410.89878891 197.14782774 416.12585972 201.22516129 421.33251953 205.33447266 C424.19616933 207.59243082 427.07782482 209.81850276 430 212 C430.35070445 186.24411642 430.6150604 160.48859159 430.77718258 134.73079967 C430.85446712 122.7703225 430.9597898 110.81133041 431.1315918 98.85180664 C431.28129889 88.4253714 431.37791817 78.00001169 431.41132742 67.57253152 C431.43085307 62.05267261 431.47658616 56.53588994 431.58595085 51.01701927 C431.68817227 45.81623119 431.71910163 40.61976902 431.69661522 35.41807175 C431.70072494 33.51479712 431.73034624 31.61137037 431.78808212 29.70896721 C432.34157804 19.82808676 432.34157804 19.82808676 428.44613194 11.13853288 C425.28476307 8.28422573 421.8986093 6.04789392 418.22138309 3.91544056 C417.15832667 3.28334517 416.09527025 2.65124979 415 2 C415 1.34 415 0.68 415 0 C422.59546513 -3.409238 429.99124825 -6.62728056 438.25 -3.8125 C443.14244222 -1.64348486 446.24045597 0.48091193 448.6875 5.375 C450 9 450 9 450.75 12.125 C452.09391455 15.21600347 452.59413563 15.57083756 455.3125 17.25 C460.20777634 20.53838699 462.30403061 24.3859502 464 30 C464.91905314 36.74693019 464.63253315 43.6210727 464.56762695 50.41259766 C464.56621511 52.48301153 464.56701111 54.55342791 464.56983948 56.62384033 C464.57126972 62.22246459 464.54194308 67.82054949 464.50696969 73.41904879 C464.47564095 79.27798484 464.4727703 85.13693427 464.46684265 90.99594116 C464.4513234 102.0809247 464.41032071 113.16566067 464.3600952 124.25053537 C464.30414217 136.87443404 464.27670022 149.49834475 464.25161803 162.12233663 C464.19940331 188.08169482 464.11149818 214.04083351 464 240 C463.14913567 240.32977829 463.14913567 240.32977829 462.28108215 240.66621876 C456.26012661 242.99987054 450.23928605 245.33381882 444.21850586 247.66792297 C441.98546113 248.53357594 439.75238918 249.39915868 437.51928711 250.2646637 C416.33301377 258.47613198 395.16357518 266.73024339 374 275 C367.33362515 277.6049142 360.66705216 280.20931976 354 282.8125 C353.16654053 283.13793793 352.33308105 283.46337585 351.47436523 283.79867554 C337.15801165 289.38758091 322.83045075 294.94735526 308.5 300.5 C293.16098277 306.44379431 277.82534124 312.39602157 262.5 318.375 C261.66862518 318.69919922 260.83725037 319.02339844 259.98068237 319.35742188 C251.04211136 322.84380545 242.1103841 326.34658307 233.19140625 329.8828125 C232.4119162 330.19149261 231.63242615 330.50017273 230.82931519 330.81820679 C227.15791348 332.27212785 223.48780609 333.72911904 219.8203125 335.19287109 C218.53781562 335.70163656 217.25526675 336.21027103 215.97265625 336.71875 C214.86156494 337.16154297 213.75047363 337.60433594 212.60571289 338.06054688 C210 339 210 339 208 339 C208 332.73 208 326.46 208 320 C206.30875 320.103125 204.6175 320.20625 202.875 320.3125 C189.86693016 320.25157227 178.908802 313.67257406 168.04125977 307.20092773 C167.03083618 306.60646851 167.03083618 306.60646851 166 306 C164.96077393 305.37262939 163.92154785 304.74525879 162.85083008 304.09887695 C158.63308097 301.69849374 154.21874581 299.97010757 149.6953125 298.234375 C148.79607559 297.8841629 147.89683868 297.53395081 146.97035217 297.17312622 C144.02386827 296.0269452 141.07446132 294.88849474 138.125 293.75 C136.05097561 292.94472037 133.97716668 292.13888561 131.90356445 291.33251953 C127.65791881 289.68225815 123.41120204 288.03480096 119.16357422 286.38964844 C110.99998478 283.22662881 102.84573359 280.03979411 94.69134521 276.85314941 C90.48626046 275.21039564 86.28022033 273.57009215 82.07421875 271.9296875 C75.30576511 269.2896375 68.53752852 266.64903223 61.76953125 264.0078125 C60.92153961 263.67691116 60.07354797 263.34600983 59.19985962 263.00508118 C54.94257268 261.34375701 50.68546729 259.68197035 46.42871094 258.01928711 C38.51320244 254.92805751 30.59608646 251.84116989 22.67282104 248.76986694 C18.98091635 247.33845814 15.28998607 245.90454619 11.59912109 244.47045898 C9.8605078 243.79571372 8.12143206 243.1221585 6.38183594 242.44995117 C-2.10789081 239.16907073 -10.57170561 235.83565713 -18.94140625 232.2578125 C-19.59931656 231.98243149 -20.25722687 231.70705048 -20.93507385 231.42332458 C-27.10747924 228.73863765 -30.5458548 225.59892502 -33.04278851 219.41915894 C-34.1764344 215.36977642 -34.28068857 211.5894515 -34.26069641 207.42236328 C-34.26452196 206.57209124 -34.26834751 205.72181919 -34.27228898 204.84578133 C-34.28258689 202.00389504 -34.27863295 199.16221199 -34.2746582 196.3203125 C-34.2790064 194.27992567 -34.28418991 192.23954048 -34.29014587 190.19915771 C-34.30353417 184.66207825 -34.30411482 179.12506705 -34.30158257 173.58797455 C-34.30051295 168.9655229 -34.30539592 164.34308506 -34.310188 159.72063637 C-34.32128217 148.81700227 -34.3217208 137.91340263 -34.31567383 127.00976562 C-34.30963045 115.75916565 -34.32195454 104.50869061 -34.3432439 93.25811195 C-34.36085089 83.59852106 -34.36686276 73.93896998 -34.36360615 64.27936363 C-34.36179203 58.51012143 -34.36444258 52.7409684 -34.37832069 46.97174072 C-34.39088002 41.54788977 -34.38897283 36.12423394 -34.37590981 30.70038605 C-34.37354051 28.70977971 -34.37629131 26.71915972 -34.38453293 24.72856903 C-34.39497193 22.01136426 -34.38692266 19.2948177 -34.3742218 16.57763672 C-34.38159609 15.78988924 -34.38897037 15.00214176 -34.39656812 14.19052315 C-34.33305087 7.73181487 -32.80145423 3.80145423 -28.25 -0.75 C-19.00960395 -7.14719727 -9.51182805 -4.65022705 0 0 Z " fill="#668577" transform="translate(48,35)"/>
<path d="M0 0 C0.90234879 0.20508682 1.80469757 0.41017365 2.73439026 0.62147522 C5.68887133 1.29497496 8.64113416 1.97764041 11.59326172 2.66137695 C13.67051085 3.13904512 15.74781283 3.6164835 17.82516479 4.09370422 C22.17173011 5.09393724 26.51711602 6.09912054 30.86181641 7.10742188 C36.38606751 8.38873208 41.91376873 9.65439776 47.44258308 10.91585064 C51.73417919 11.89749423 56.02338353 12.88929092 60.3120079 13.88382912 C62.34663093 14.35408398 64.38204821 14.82091781 66.41830826 15.28403282 C95.39578645 21.88718532 123.45138994 32.98031604 140.39794922 58.9621582 C148.25802465 71.70359 155.71554977 85.07113602 155.67642212 100.39671326 C155.68221452 101.2194047 155.68800692 102.04209615 155.69397485 102.88971764 C155.71090891 105.63192241 155.71384565 108.3739582 155.71679688 111.11621094 C155.7260996 113.08766591 155.73626879 115.05911695 155.74723816 117.03056335 C155.77451332 122.37294534 155.78968026 127.71530099 155.80266619 133.05773425 C155.81830755 138.6444823 155.84509459 144.23117667 155.87069702 149.81788635 C155.91746696 160.39284086 155.95421975 170.96780548 155.98736989 181.5428105 C156.02560386 193.58388941 156.07501071 205.62491437 156.12535405 217.66594779 C156.22864738 242.43131127 156.31791627 267.19670941 156.39794922 291.9621582 C155.73794922 291.9621582 155.07794922 291.9621582 154.39794922 291.9621582 C154.03443359 290.79040039 153.67091797 289.61864258 153.29638672 288.41137695 C145.3620591 263.37849329 130.80290809 242.73037344 107.83544922 229.3371582 C107.25400146 228.98903076 106.67255371 228.64090332 106.07348633 228.28222656 C93.23020736 221.08213019 78.52385009 217.77900437 64.27294922 214.6496582 C62.58894828 214.27159491 60.9051968 213.89241897 59.22167969 213.51220703 C55.72343207 212.72303528 52.22417086 211.93860903 48.72412109 211.1574707 C40.81322562 209.38755576 32.91657852 207.55588667 25.019104 205.72720337 C22.60647313 205.16898346 20.19345471 204.61247585 17.78027344 204.05664062 C16.6410997 203.79395134 16.6410997 203.79395134 15.47891235 203.5259552 C13.98607996 203.18202356 12.4930615 202.83889845 10.99984741 202.49662781 C7.2377046 201.63135533 3.48366486 200.74168314 -0.26318359 199.81225586 C-1.40462326 199.53276848 -1.40462326 199.53276848 -2.56912231 199.24763489 C-4.00282099 198.89555745 -5.43500874 198.53723801 -6.86520386 198.17118835 C-14.25770298 196.34350387 -14.25770298 196.34350387 -21.50390625 197.85742188 C-21.98746582 198.27741455 -22.47102539 198.69740723 -22.96923828 199.13012695 C-23.53578125 199.60450195 -24.10232422 200.07887695 -24.68603516 200.56762695 C-25.27707031 201.08969727 -25.86810547 201.61176758 -26.47705078 202.1496582 C-27.79564575 203.25977441 -29.11602673 204.36777192 -30.43798828 205.47387695 C-31.11958008 206.05057129 -31.80117187 206.62726563 -32.50341797 207.22143555 C-35.95074909 210.08084352 -39.52695473 212.76552832 -43.10205078 215.4621582 C-49.50583356 220.3190341 -55.81229745 225.2824972 -62.04541016 230.35668945 C-66.49836001 233.9621582 -66.49836001 233.9621582 -67.60205078 233.9621582 C-67.85911193 208.04110852 -68.05303714 182.12025008 -68.17198467 156.19818211 C-68.22868457 144.16179842 -68.30597286 132.12620709 -68.43188477 120.09033203 C-68.54158902 109.59873118 -68.61250611 99.10770417 -68.63702422 88.61554569 C-68.65135505 83.06061217 -68.68498419 77.50732015 -68.76508141 71.95291328 C-68.83990808 66.72147141 -68.86274794 61.49234222 -68.84623528 56.26041603 C-68.84925459 54.34351262 -68.87104709 52.42652968 -68.913311 50.51008987 C-69.21682 36.03408149 -69.21682 36.03408149 -65.18869972 30.86556816 C-62.42783821 28.57951648 -59.70186089 26.7492517 -56.60205078 24.9621582 C-55.45046555 24.07854834 -54.31377241 23.1746285 -53.20361328 22.23950195 C-45.96341909 16.54806321 -38.67024507 10.92798037 -31.35205078 5.3371582 C-30.42215332 4.62551514 -29.49225586 3.91387207 -28.53417969 3.18066406 C-27.6645459 2.5181665 -26.79491211 1.85566895 -25.89892578 1.1730957 C-25.1187207 0.57803223 -24.33851562 -0.01703125 -23.53466797 -0.63012695 C-17.0347641 -5.36464511 -7.30963942 -1.70270376 0 0 Z " fill="#D4D1BC" transform="translate(100.60205078125,14.037841796875)"/>
<path d="M0 0 C0.9364032 0.23360985 0.9364032 0.23360985 1.89172363 0.47193909 C3.2402066 0.80878064 4.58783377 1.14906353 5.93466187 1.49246216 C9.61447589 2.42938428 13.301431 3.33732419 16.98828125 4.24609375 C18.14096748 4.5308683 18.14096748 4.5308683 19.31694031 4.82139587 C26.94845818 6.69602224 34.61252818 8.4112958 42.28778076 10.09643555 C44.55526606 10.59473558 46.82192991 11.09661841 49.08837891 11.59960938 C57.8203477 13.53740901 57.8203477 13.53740901 66.56152344 15.43310547 C99.51317799 22.49713096 128.12348516 33.32472841 147.36328125 62.53125 C153.37341552 71.84572821 160.36328125 83.18107909 160.36328125 94.53125 C161.02328125 94.53125 161.68328125 94.53125 162.36328125 94.53125 C162.51796875 92.78714844 162.51796875 92.78714844 162.67578125 91.0078125 C163.23277053 86.60798397 164.53915766 82.9276019 166.36328125 78.90625 C166.827948 77.87310669 166.827948 77.87310669 167.30200195 76.8190918 C178.67862754 52.29589319 198.49548266 33.64656642 223.73046875 23.73046875 C239.97278114 18.36875918 256.99949775 15.2414391 273.68969727 11.57421875 C285.83931491 8.89996334 297.9327486 6.03529322 310.015625 3.07421875 C311.05960449 2.82075684 312.10358398 2.56729492 313.17919922 2.30615234 C315.39363458 1.76723056 317.60607413 1.22006858 319.81689453 0.66650391 C334.08472592 -2.80943677 334.08472592 -2.80943677 338.18066406 -0.39941406 C340.21089375 1.11365226 342.09569404 2.72441653 343.98828125 4.40625 C345.40371477 5.61082551 346.82039712 6.81393502 348.23828125 8.015625 C349.28435547 8.9137793 349.28435547 8.9137793 350.3515625 9.83007812 C353.15829651 12.2035396 356.0578753 14.43868233 358.98828125 16.65625 C360.02210938 17.44644531 361.0559375 18.23664063 362.12109375 19.05078125 C362.64348633 19.44990723 363.16587891 19.8490332 363.70410156 20.26025391 C366.76812333 22.60741361 369.81877187 24.97135307 372.86328125 27.34375 C373.43900879 27.78799316 374.01473633 28.23223633 374.60791016 28.68994141 C375.4304126 29.33261963 375.4304126 29.33261963 376.26953125 29.98828125 C376.98592773 30.5447937 376.98592773 30.5447937 377.71679688 31.11254883 C380.05717281 33.129145 382.1960142 35.3316391 384.36328125 37.53125 C383.42274902 37.89138184 382.4822168 38.25151367 381.51318359 38.62255859 C356.93102175 48.03926678 332.39977366 57.58146367 307.89189148 67.18966675 C298.11543834 71.02190671 288.33356287 74.84020019 278.55078125 78.65625 C276.88117976 79.3076854 275.21158339 79.95913392 273.54199219 80.6105957 C265.70620642 83.66785348 257.86989705 86.72376474 250.03297424 89.77810669 C246.32601566 91.22295888 242.61924988 92.66830531 238.9125061 94.1137085 C237.16453622 94.79515125 235.41647292 95.47635446 233.66830444 96.1572876 C232.02359521 96.79792356 230.37902492 97.43891639 228.73460388 98.08029175 C227.16747649 98.69124619 225.59991052 99.301077 224.03187561 99.90969849 C220.35869971 101.33981884 216.70183257 102.7971368 213.06738281 104.32324219 C212.38934601 104.60493256 211.7113092 104.88662292 211.01272583 105.17684937 C209.19399839 105.93569154 207.38023023 106.70638974 205.56689453 107.47802734 C201.60082659 108.78191525 198.34788926 109.22601972 194.35620117 107.82861328 C193.77459229 107.50618652 193.1929834 107.18375977 192.59375 106.8515625 C191.93181641 106.49964844 191.26988281 106.14773438 190.58789062 105.78515625 C189.91564453 105.41261719 189.24339844 105.04007812 188.55078125 104.65625 C179.53777361 99.67931115 171.38326304 98.13733485 161.11328125 98.15625 C159.73619995 98.15866699 159.73619995 98.15866699 158.33129883 98.16113281 C147.19956136 98.36080523 135.77361297 101.30176886 126.98828125 108.46875 C120.74674966 110.99508422 111.44344579 105.50699705 105.421875 103.08203125 C104.59360703 102.75264557 103.76533905 102.42325989 102.91197205 102.08389282 C101.13361234 101.37623686 99.355986 100.66673558 97.57904053 99.95553589 C92.77228993 98.03200142 87.95986135 96.12274497 83.1484375 94.2109375 C82.16270752 93.81879562 81.17697754 93.42665375 80.16137695 93.02262878 C70.36990821 89.12957654 60.55690522 85.29269555 50.73828125 81.46875 C49.04027585 80.80706641 47.34227782 80.14536388 45.64428711 79.48364258 C42.24835912 78.16042318 38.85225248 76.83766345 35.45605469 75.51513672 C27.7755446 72.52380925 20.0975173 69.52611899 12.41928101 66.52896118 C8.19104687 64.87850857 3.96272388 63.22828364 -0.265625 61.578125 C-1.10483994 61.25060745 -1.94405487 60.9230899 -2.80870056 60.58564758 C-8.245015 58.4641803 -13.68170663 56.34368204 -19.11862183 54.22375488 C-22.86822883 52.76169283 -26.61771276 51.29931528 -30.3671875 49.83691406 C-32.14723679 49.14274621 -33.92734576 48.44873137 -35.70751953 47.75488281 C-53.40356861 40.85751075 -53.40356861 40.85751075 -61.63671875 37.53125 C-57.78867765 33.5363371 -53.70461098 30.00840134 -49.38671875 26.53125 C-48.69433105 25.97091064 -48.00194336 25.41057129 -47.28857422 24.83325195 C-41.46886283 20.14809036 -35.56062595 15.58312774 -29.59521484 11.08520508 C-26.52931465 8.76991199 -23.49476106 6.4532606 -20.58984375 3.9375 C-19.7390625 3.2053125 -18.88828125 2.473125 -18.01171875 1.71875 C-17.31820312 1.09355469 -16.6246875 0.46835938 -15.91015625 -0.17578125 C-10.99576441 -2.97073606 -5.21377138 -1.32704606 0 0 Z " fill="#AFA18D" transform="translate(94.63671875,211.46875)"/>
<path d="M0 0 C2.48949931 1.83832243 4.11885922 3.91524744 6.00390625 6.37109375 C22.9085882 27.45384343 44.27011368 40.6938464 69.49609375 49.703125 C81.00418548 53.8890937 87.40378147 58.30086019 92.94140625 69.43359375 C93.93434434 72.41240802 94.0626041 74.34846614 94.05493164 77.45581055 C94.05485611 78.4766423 94.05478058 79.49747406 94.05470276 80.54924011 C94.04954147 81.649319 94.04438019 82.74939789 94.0390625 83.8828125 C94.03694008 85.57444267 94.03694008 85.57444267 94.03477478 87.30024719 C94.02917095 90.90722287 94.01661778 94.51413679 94.00390625 98.12109375 C93.99889174 100.56445223 93.99432875 103.00781168 93.99023438 105.45117188 C93.97920028 111.44533362 93.9624584 117.43945927 93.94140625 123.43359375 C89.72636081 122.64674755 85.87701527 121.38158927 81.890625 119.828125 C80.83291901 119.42126968 80.83291901 119.42126968 79.75384521 119.00619507 C77.37720878 118.09039084 75.00303257 117.16838397 72.62890625 116.24609375 C70.91355488 115.5829287 69.19813956 114.91992904 67.48266602 114.25708008 C46.38927472 106.09412017 25.34995505 97.79179209 4.30358887 89.5085907 C-5.98905085 85.4586966 -16.28768759 81.42425699 -26.58898926 77.39645386 C-29.35340644 76.31550985 -32.11765007 75.23412326 -34.88183594 74.15258789 C-42.87118533 71.02672477 -50.86074781 67.90141268 -58.8515625 64.77929688 C-64.71785768 62.48717115 -70.5833303 60.19295081 -76.44833374 57.89752197 C-78.70505779 57.01472811 -80.96207045 56.13267164 -83.21939087 55.25140381 C-86.36055558 54.02498751 -89.50069505 52.79597975 -92.640625 51.56640625 C-94.0250177 51.02696381 -94.0250177 51.02696381 -95.43737793 50.47662354 C-101.04804231 48.27578734 -106.57354843 45.93124505 -112.05859375 43.43359375 C-109.83151427 41.20651427 -108.25411665 40.58994222 -105.32910156 39.47265625 C-104.33495239 39.08982483 -103.34080322 38.70699341 -102.31652832 38.31256104 C-100.68064758 37.69184723 -100.68064758 37.69184723 -99.01171875 37.05859375 C-97.87279175 36.62142029 -96.73386475 36.18424683 -95.5604248 35.73382568 C-93.09724672 34.78894083 -90.63343729 33.84595684 -88.16833496 32.90612793 C-84.30058854 31.43139114 -80.43559394 29.94954841 -76.57128906 28.46582031 C-75.92639904 28.21821583 -75.28150902 27.97061134 -74.61707687 27.71550369 C-73.30772731 27.2127488 -71.99838972 26.70996272 -70.68906403 26.20714569 C-68.70538616 25.44558787 -66.72145707 24.68468747 -64.73748779 23.92388916 C-52.07297454 19.06549687 -39.43693904 14.13519772 -26.80859375 9.18359375 C-24.86100406 8.4205692 -22.91341296 7.65754825 -20.96582031 6.89453125 C-17.62505042 5.58501046 -14.28437934 4.27523996 -10.94433594 2.96386719 C-10.26697891 2.69933243 -9.58962189 2.43479767 -8.89173889 2.1622467 C-7.30162195 1.53019451 -5.72582439 0.86234289 -4.15307617 0.18823242 C-2.05859375 -0.56640625 -2.05859375 -0.56640625 0 0 Z " fill="#7A5436" transform="translate(418.05859375,350.56640625)"/>
<path d="M0 0 C6.17475274 1.19539472 11.84832018 2.91330261 17.66796875 5.28125 C18.48515884 5.60703537 19.30234894 5.93282074 20.14430237 6.26847839 C22.82783006 7.33960829 25.50756926 8.41990616 28.1875 9.5 C31.0501638 10.64477302 33.91383462 11.78700185 36.77755737 12.92912292 C38.77210528 13.72475424 40.7663432 14.52116307 42.76028442 15.3183136 C54.06639117 19.83554413 65.40774019 24.26202132 76.75 28.6875 C88.85278502 33.41073608 100.94817215 38.14792018 113 43 C109.54576886 45.95676022 105.72528872 47.44370281 101.51953125 49.01171875 C100.77210159 49.29648575 100.02467194 49.58125275 99.2545929 49.87464905 C97.63100731 50.49249057 96.00632125 51.10744622 94.38067627 51.71984863 C90.85700984 53.04751476 87.33884036 54.3894696 83.8203125 55.73068237 C81.97519494 56.4339407 80.12981306 57.13650591 78.28417969 57.83840942 C68.87553398 61.4189515 59.49899243 65.0799096 50.125 68.75 C46.70078655 70.08922198 43.27625205 71.42762099 39.8515625 72.765625 C38.98152084 73.10555984 38.11147919 73.44549469 37.21507263 73.79573059 C26.3179408 78.05081767 15.40853535 82.27425628 4.5 86.5 C-10.88278784 92.45933493 -26.25901964 98.43495834 -41.625 104.4375 C-65.26073345 113.66810416 -65.26073345 113.66810416 -76.93426514 118.19802856 C-78.29879274 118.7277733 -79.66309578 119.25809685 -81.02716064 119.78903198 C-82.87164505 120.50680571 -84.71704485 121.22222583 -86.5625 121.9375 C-87.59503906 122.33839844 -88.62757812 122.73929687 -89.69140625 123.15234375 C-92 124 -92 124 -93 124 C-93.1532635 116.95682957 -93.25767818 109.91409556 -93.32958984 102.86962891 C-93.3595958 100.47786388 -93.40041451 98.08620732 -93.45263672 95.69482422 C-94.02876356 68.61686283 -94.02876356 68.61686283 -85.06835938 58.90673828 C-78.85283403 53.03002917 -69.97101324 50.66838575 -62.09423828 47.78466797 C-37.86782979 38.70753147 -14.09381754 22.03583019 0 0 Z " fill="#C8AC7F" transform="translate(93,350)"/>
<path d="M0 0 C3.45359351 1.32983633 6.14148829 2.66375468 9.0390625 4.9765625 C9.77979004 5.56147461 10.52051758 6.14638672 11.28369141 6.74902344 C12.05632324 7.3680957 12.82895508 7.98716797 13.625 8.625 C19.71504204 13.44911361 25.83247606 18.13053902 32.2265625 22.546875 C33.10441406 23.26617187 33.10441406 23.26617187 34 24 C34 24.66 34 25.32 34 26 C34.53284985 26.25959283 35.06569969 26.51918566 35.6146965 26.78664494 C36.40184666 27.18705211 37.18899681 27.58745928 38 28 C38.97935139 28.48928954 39.95870277 28.97857908 40.96773148 29.48269558 C49.05327635 34.36616809 49.05327635 34.36616809 50.68755245 38.91280484 C51.79332473 44.67764157 51.50279634 50.54144534 51.36230469 56.38110352 C51.35891666 58.35284721 51.36082595 60.32460603 51.36761475 62.29634094 C51.37104955 67.63168555 51.30064799 72.96377435 51.21672726 78.29836392 C51.14156553 83.87956175 51.13465127 89.46083938 51.12042236 95.04246521 C51.0831666 105.60392474 50.98475277 116.16388864 50.86422849 126.72469038 C50.72996635 138.75106061 50.66408781 150.77750335 50.60388327 162.8044368 C50.47854761 187.5371195 50.26756131 212.26847585 50 237 C46.98934908 235.21547337 44.16446369 233.44902092 41.46875 231.21484375 C40.5104126 230.4266626 40.5104126 230.4266626 39.53271484 229.62255859 C38.86191895 229.06648926 38.19112305 228.51041992 37.5 227.9375 C31.49680821 223.00909751 25.42599267 218.20138191 19.25 213.4921875 C14.98741725 210.23736351 10.7833244 206.90792738 6.57958984 203.57763672 C4.10069981 201.62001197 1.63005879 199.75337253 -1 198 C-1.28209612 195.33617599 -1.36681222 192.90714251 -1.32279968 190.24264526 C-1.3212794 189.43239305 -1.31975913 188.62214083 -1.31819278 187.78733552 C-1.30938358 185.0570071 -1.27898081 182.32733753 -1.2487793 179.59716797 C-1.23807719 177.64616552 -1.22869869 175.69515542 -1.22055054 173.74414062 C-1.19459991 168.43435943 -1.15004105 163.12487536 -1.10225272 157.81525183 C-1.05548275 152.27127771 -1.02567094 146.72721371 -0.99409485 141.18313599 C-0.93167276 130.67872073 -0.85390052 120.17447688 -0.77067453 109.6702081 C-0.67668751 97.713993 -0.59971957 85.75768755 -0.52421319 73.80134368 C-0.36847321 49.20074771 -0.19125637 24.60034366 0 0 Z " fill="#D5D2BD" transform="translate(429,11)"/>
<path d="M0 0 C0.37426149 25.72126949 0.65614996 51.44212924 0.82899475 77.16557598 C0.91139481 89.11041634 1.02366624 101.0535621 1.20703125 112.99731445 C1.36683436 123.41131857 1.46980615 133.82409531 1.50541592 144.23929149 C1.52622452 149.75158089 1.5748796 155.26036014 1.69168091 160.77152061 C1.8009035 165.96754773 1.83367325 171.15864682 1.8097229 176.35571289 C1.81409858 178.25495596 1.84558757 180.15437621 1.9072876 182.05262184 C2.33753775 195.98148843 2.33753775 195.98148843 -1.58085823 201.04139543 C-5.38538237 204.84678488 -9.62428973 207.9033975 -14.14454651 210.80049479 C-16.45883628 212.29662641 -18.60551684 213.96779846 -20.75390625 215.69140625 C-22.02170942 216.65072556 -23.29117874 217.60784788 -24.5625 218.5625 C-30.94818767 223.39586168 -37.23275153 228.33855987 -43.44360352 233.39477539 C-47.89639579 237 -47.89639579 237 -49 237 C-49.25706115 211.07895032 -49.45098636 185.15809188 -49.56993389 159.2360239 C-49.62663379 147.19964022 -49.70392208 135.16404889 -49.82983398 123.12817383 C-49.93953824 112.63657297 -50.01045533 102.14554597 -50.03497344 91.65338749 C-50.04930427 86.09845396 -50.08293341 80.54516195 -50.16303062 74.99075508 C-50.2378573 69.75931321 -50.26069716 64.53018402 -50.24418449 59.29825783 C-50.2472038 57.38135442 -50.26899631 55.46437148 -50.31126022 53.54793167 C-50.61476921 39.07192329 -50.61476921 39.07192329 -46.58664894 33.90340996 C-43.82578743 31.61735827 -41.09981011 29.7870935 -38 28 C-36.84841476 27.11639014 -35.71172163 26.21247029 -34.6015625 25.27734375 C-27.36136831 19.58590501 -20.06819429 13.96582217 -12.75 8.375 C-11.82010254 7.66335693 -10.89020508 6.95171387 -9.93212891 6.21850586 C-9.06249512 5.5560083 -8.19286133 4.89351074 -7.296875 4.2109375 C-6.51666992 3.61587402 -5.73646484 3.02081055 -4.93261719 2.40771484 C-1.62712452 0 -1.62712452 0 0 0 Z " fill="#FDFAE0" transform="translate(82,11)"/>
<path d="M0 0 C5.94275201 3.18500435 10.44230554 6.43273072 13.16512108 12.73237228 C15.13638254 20.44768098 14.64320106 28.50482561 14.56762695 36.41259766 C14.56621511 38.48301153 14.56701111 40.55342791 14.56983948 42.62384033 C14.57126972 48.22246459 14.54194308 53.82054949 14.50696969 59.41904879 C14.47564095 65.27798484 14.4727703 71.13693427 14.46684265 76.99594116 C14.4513234 88.0809247 14.41032071 99.16566067 14.3600952 110.25053537 C14.30414217 122.87443404 14.27670022 135.49834475 14.25161803 148.12233663 C14.19940331 174.08169482 14.11149818 200.04083351 14 226 C13.43275711 226.21985219 12.86551422 226.43970438 12.28108215 226.66621876 C6.26012661 228.99987054 0.23928605 231.33381882 -5.78149414 233.66792297 C-8.01453887 234.53357594 -10.24761082 235.39915868 -12.48071289 236.2646637 C-33.66698623 244.47613198 -54.83642482 252.73024339 -76 261 C-82.66637485 263.6049142 -89.33294784 266.20931976 -96 268.8125 C-96.83345947 269.13793793 -97.66691895 269.46337585 -98.52563477 269.79867554 C-112.84198835 275.38758091 -127.16954925 280.94735526 -141.5 286.5 C-156.83901723 292.44379431 -172.17465876 298.39602157 -187.5 304.375 C-188.33137482 304.69919922 -189.16274963 305.02339844 -190.01931763 305.35742188 C-198.95788864 308.84380545 -207.8896159 312.34658307 -216.80859375 315.8828125 C-217.5880838 316.19149261 -218.36757385 316.50017273 -219.17068481 316.81820679 C-222.84208652 318.27212785 -226.51219391 319.72911904 -230.1796875 321.19287109 C-231.46218438 321.70163656 -232.74473325 322.21027103 -234.02734375 322.71875 C-235.13843506 323.16154297 -236.24952637 323.60433594 -237.39428711 324.06054688 C-240 325 -240 325 -242 325 C-242 318.73 -242 312.46 -242 306 C-239.916875 305.835 -237.83375 305.67 -235.6875 305.5 C-229.2092243 304.75222769 -223.44368618 302.94451504 -217.4375 300.4375 C-216.70813232 300.13972656 -215.97876465 299.84195312 -215.22729492 299.53515625 C-210.36705708 297.40790476 -206.1683214 294.77752439 -201.796875 291.7734375 C-192.53562613 285.58092625 -182.19574428 282.05531763 -171.8125 278.1875 C-169.65359923 277.36927002 -167.49541012 276.54916017 -165.33789062 275.72729492 C-161.97281935 274.44580647 -158.60731302 273.16560428 -155.23953247 271.89125061 C-144.19411498 267.71107117 -133.19995706 263.40429295 -122.21151733 259.07696533 C-116.87169667 256.9745267 -111.52953506 254.87805429 -106.1875 252.78125 C-105.15328415 252.3751651 -104.1190683 251.9690802 -103.05351257 251.5506897 C-94.71812384 248.27884254 -86.37650267 245.02316763 -78.0324707 241.7734375 C-72.25573917 239.52345214 -66.48226777 237.26514444 -60.70878601 235.00683594 C-55.19221181 232.85096051 -49.66945178 230.71152558 -44.14407349 228.57832336 C-40.16109752 227.03801982 -36.18189315 225.48813236 -32.20336914 223.93637085 C-30.29709414 223.19527646 -28.38924291 222.45822207 -26.47973633 221.72549438 C-23.83249018 220.70910949 -21.19120852 219.67847779 -18.55078125 218.64453125 C-17.77148758 218.34933594 -16.99219391 218.05414063 -16.18928528 217.75 C-9.87762895 215.25064803 -5.27892563 212.83224045 -2.3591032 206.36615753 C-0.81308123 201.97828991 -0.57190949 197.98895581 -0.60127258 193.3692627 C-0.59130234 192.12169323 -0.59130234 192.12169323 -0.58113068 190.84892035 C-0.56258541 188.08209597 -0.56510023 185.31570727 -0.56762695 182.54882812 C-0.55860462 180.55751946 -0.54827624 178.56621636 -0.53674316 176.57492065 C-0.50920251 171.18298963 -0.49989259 165.79116407 -0.49388909 160.39917183 C-0.48449784 154.75903278 -0.4582938 149.11897228 -0.43388367 143.47888184 C-0.39023575 132.80479131 -0.36167825 122.13071605 -0.33856028 111.45656347 C-0.31149951 99.30178765 -0.2675885 87.1470909 -0.22227156 74.99237156 C-0.1294497 49.99495726 -0.05775765 24.99751817 0 0 Z " fill="#C8AC7F" transform="translate(498,49)"/>
<path d="M0 0 C0.00238835 1.03367958 0.00477671 2.06735916 0.00723743 3.13236237 C0.06604009 28.28767234 0.14192774 53.4428866 0.23571491 78.59809113 C0.28067449 90.76297642 0.32008885 102.92783242 0.34643555 115.09277344 C0.36941423 125.69611604 0.40281095 136.29936598 0.44870156 146.9026351 C0.47263537 152.51663175 0.49136317 158.13053662 0.49761391 163.74458313 C0.50366395 169.03051168 0.52366126 174.31620537 0.55427551 179.60204697 C0.56305695 181.54018905 0.5667781 183.47836182 0.56500816 185.41652298 C0.56335177 188.06770649 0.58008582 190.71817715 0.60127258 193.3692627 C0.59642501 194.13193152 0.59157743 194.89460034 0.58658296 195.68038034 C0.67101508 202.10505349 1.95280776 207.67616016 6.3125 212.625 C16.50669608 220.11991395 31.08261381 223.82903124 42.8125 228.375 C44.61728634 229.07656871 46.42197167 229.77839729 48.2265625 230.48046875 C51.96396801 231.93426755 55.70179904 233.38696416 59.43994141 234.83886719 C67.28504793 237.88690609 75.12480893 240.94862586 82.96469116 244.0100708 C87.22621416 245.67401248 91.48812789 247.33695277 95.75 249 C97.45833518 249.66666193 99.16666852 250.3333286 100.875 251 C101.720625 251.33 102.56625 251.66 103.4375 252 C111.125 255 111.125 255 113.68701172 255.99981689 C115.39696594 256.66711114 117.10692688 257.33438813 118.81689453 258.00164795 C123.06298345 259.65857204 127.30895855 261.31578652 131.5546875 262.97363281 C139.5369927 266.09015723 147.52043887 269.20366555 155.50769043 272.30749512 C159.26735072 273.76868711 163.02639824 275.2314518 166.78540039 276.69433594 C168.57204169 277.38913196 170.35898067 278.08316309 172.14624023 278.77636719 C174.62950903 279.73958019 177.11172522 280.70546175 179.59375 281.671875 C180.67390381 282.08962189 180.67390381 282.08962189 181.77587891 282.51580811 C189.67569348 285.59824043 197.19214463 288.91427912 204.375 293.4375 C216.64724009 300.97029727 227.54912364 305.02578362 242 306 C242 312.27 242 318.54 242 325 C233.64536916 322.69669762 225.67521317 319.61029557 217.64175415 316.39468384 C214.30404668 315.05892797 210.9625115 313.7328687 207.62117004 312.40623474 C205.83404339 311.69667098 204.04708956 310.98667178 202.26029968 310.27626038 C192.1263492 306.2491738 181.96963554 302.28065431 171.8125 298.3125 C167.91264909 296.78804509 164.01295337 295.26319345 160.11328125 293.73828125 C159.12806488 293.35306808 158.14284851 292.96785492 157.1277771 292.57096863 C145.58186016 288.05579087 134.04101795 283.52768135 122.5 279 C105.40647703 272.29439077 88.30985558 265.59677342 71.20950317 258.90859985 C59.88617871 254.47979135 48.56472975 250.04624745 37.24609375 245.60546875 C36.09178864 245.15261505 34.93748352 244.69976135 33.74819946 244.23318481 C28.14373314 242.03434495 22.53948318 239.83495592 16.93554688 237.63476562 C14.89324459 236.83329404 12.85092739 236.03186044 10.80859375 235.23046875 C9.36641983 234.66415237 9.36641983 234.66415237 7.89511108 234.08639526 C1.65164018 231.63773797 -4.60460897 229.22746446 -10.88256836 226.8684082 C-13 226 -13 226 -14 225 C-14.10672286 222.31219162 -14.14778393 219.64976922 -14.14717102 216.96116638 C-14.15084771 216.10841049 -14.1545244 215.25565459 -14.1583125 214.37705761 C-14.16939572 211.49672713 -14.17320105 208.61643265 -14.17700195 205.73608398 C-14.18326326 203.67997624 -14.18990976 201.62386963 -14.19691467 199.56776428 C-14.21435909 193.96416322 -14.22488646 188.36057071 -14.2331202 182.75694919 C-14.23826458 179.25743443 -14.24434066 175.75792236 -14.25063133 172.2584095 C-14.26969563 161.313779 -14.28392239 150.36915529 -14.2922433 139.42451137 C-14.30201198 126.78321894 -14.32831679 114.14210179 -14.36874419 101.50087112 C-14.39889973 91.73689863 -14.41371177 81.97297637 -14.41702431 72.20895821 C-14.41937606 66.37469951 -14.42835232 60.5406278 -14.45348549 54.70641899 C-14.47676025 49.21447852 -14.48100168 43.7228482 -14.47072411 38.2308712 C-14.47022844 36.216911 -14.47655784 34.20293558 -14.49028015 32.18902206 C-14.50799313 29.43488362 -14.5008957 26.68185878 -14.48774719 23.92771912 C-14.49871644 23.13460483 -14.50968568 22.34149053 -14.52098733 21.52434248 C-14.44439152 14.85794419 -12.39118699 9.67091075 -7.9296875 4.6875 C-7.25164063 4.130625 -6.57359375 3.57375 -5.875 3 C-5.19179687 2.4225 -4.50859375 1.845 -3.8046875 1.25 C-2 0 -2 0 0 0 Z " fill="#A47C48" transform="translate(14,49)"/>
<path d="M0 0 C1.62428792 0.36737609 3.24863737 0.73448025 4.87304688 1.10131836 C7.29312628 1.64803865 9.71308023 2.19526977 12.13253784 2.74473572 C16.53641523 3.74350022 20.94440309 4.71375682 25.36328125 5.64453125 C47.43680875 10.33218897 68.61862956 17.08066379 85.8125 32.25 C86.65039062 32.96800781 87.48828125 33.68601563 88.3515625 34.42578125 C96.62749603 41.61139338 96.62749603 41.61139338 97.25 47.125 C97.14519352 50.46647704 96.77371116 51.30818326 94.8125 54.25 C91.11950936 56.71199376 88.09902319 57.05056366 83.8125 56.25 C80.86328125 54.125 80.86328125 54.125 78.125 51.25 C61.34655345 34.54964284 38.90990722 28.67029497 16.4375 23.8125 C15.75001678 23.6638147 15.06253357 23.51512939 14.35421753 23.36193848 C8.21023294 22.03596451 2.06376467 20.72206664 -4.08789062 19.43212891 C-7.66630285 18.67860686 -11.23952246 17.90381787 -14.8125 17.125 C-15.87774902 16.90787354 -16.94299805 16.69074707 -18.04052734 16.46704102 C-24.0482235 15.13998682 -27.96205051 13.81938143 -32.1875 9.25 C-33.16219149 5.77766157 -33.52995816 3.48284938 -32.5625 0 C-25.36925456 -9.15503965 -9.71860901 -2.21295488 0 0 Z " fill="#ADA999" transform="translate(143.1875,168.75)"/>
<path d="M0 0 C1.55519445 0.36138613 3.11028682 0.7232118 4.6652832 1.08544922 C6.27685445 1.45449198 7.88859146 1.82281155 9.50048828 2.19042969 C12.72905851 2.92803834 15.95631904 3.67105497 19.18286133 4.41748047 C23.20759892 5.34564889 27.23897062 6.23737867 31.2746582 7.11669922 C58.66061622 13.12825098 83.50693883 21.86553381 102.7277832 43.46044922 C104.29713914 46.59916109 104.07979423 48.99900744 103.7277832 52.46044922 C101.32700368 55.70856269 99.58569719 57.1501399 95.7902832 58.52294922 C89.73014338 58.3992729 86.16557182 53.97443046 81.9152832 50.08544922 C74.95204476 43.78145229 68.17919511 39.45974802 59.5402832 35.83544922 C58.88213623 35.55813965 58.22398926 35.28083008 57.54589844 34.99511719 C46.5849156 30.58773355 35.06796243 27.97961746 23.5345459 25.56759644 C12.14821121 23.17160133 0.78357242 20.64880032 -10.5222168 17.89794922 C-11.65167725 17.64166748 -12.7811377 17.38538574 -13.94482422 17.12133789 C-22.48782569 14.9831089 -22.48782569 14.9831089 -25.0065918 11.47216797 C-26.63928817 7.58695531 -26.46372491 5.48178911 -25.2722168 1.46044922 C-20.2876298 -6.63950465 -7.64756165 -1.74529889 0 0 Z " fill="#ADA999" transform="translate(136.272216796875,55.53955078125)"/>
<path d="M0 0 C1.54690994 0.36140026 3.09370119 0.72330886 4.64038086 1.08569336 C6.24884001 1.4555512 7.85748499 1.82460177 9.46630859 2.19287109 C12.68549596 2.93099434 15.90326293 3.67494941 19.12036133 4.42211914 C23.11038693 5.34477115 27.10903837 6.22155515 31.11303711 7.08178711 C54.13315436 12.07225537 74.55661851 18.81730033 92.64038086 34.46069336 C93.40608398 35.10522461 94.17178711 35.74975586 94.96069336 36.41381836 C102.45350858 42.80553887 102.45350858 42.80553887 103.07788086 48.33569336 C102.97307438 51.6771704 102.60159202 52.51887662 100.64038086 55.46069336 C97.62260637 57.47254302 95.52075085 58.44060659 91.85131836 58.19506836 C87.94052674 56.8960775 85.44864735 53.94843708 82.55053711 51.11303711 C79.23213405 48.08861338 75.75404985 45.6183439 72.01538086 43.14819336 C71.40621826 42.74036621 70.79705566 42.33253906 70.16943359 41.91235352 C63.19907776 37.35031318 56.12814448 34.00819527 48.14038086 31.64819336 C47.30144287 31.39811523 46.46250488 31.14803711 45.59814453 30.89038086 C37.46554317 28.55259086 29.22159546 26.73940432 20.95288086 24.96069336 C20.27114807 24.81387115 19.58941528 24.66704895 18.88702393 24.51577759 C15.46395166 23.77948897 12.0402414 23.04619211 8.61645508 22.31323242 C2.57540269 21.01855057 -3.46030932 19.70651055 -9.48461914 18.33569336 C-10.50257568 18.11848633 -11.52053223 17.9012793 -12.56933594 17.67749023 C-18.43695432 16.31937971 -22.18535444 14.88010248 -26.35961914 10.46069336 C-27.54711914 7.02319336 -27.54711914 7.02319336 -27.35961914 3.46069336 C-21.79772179 -7.08773264 -9.64813553 -2.21011664 0 0 Z " fill="#ADA999" transform="translate(137.359619140625,111.539306640625)"/>
<path d="M0 0 C2.75329021 1.79562405 4.52627461 3.05254922 6 6 C6.375 9.3125 6.375 9.3125 6 13 C2.61050242 17.14289222 -0.21060139 18.78307839 -5.3515625 20.1015625 C-6.58938477 20.42286133 -7.82720703 20.74416016 -9.10253906 21.07519531 C-14.83642641 22.45470432 -20.58990972 23.73568897 -26.36105347 24.94970703 C-29.85732324 25.688028 -33.34849354 26.44974655 -36.83984375 27.2109375 C-37.88365959 27.4384671 -37.88365959 27.4384671 -38.94856262 27.67059326 C-65.49766108 33.47383283 -87.11216504 39.61794366 -107.328125 58.50390625 C-109.78389932 60.70148 -110.95402204 60.99479495 -114.3125 61.375 C-118 61 -118 61 -120.9375 59 C-123.05558232 55.91915299 -123.8812858 53.86295691 -123.5859375 50.09375 C-120.64236866 39.57539736 -104.74959755 30.4893936 -95.9375 25.125 C-87.54352088 20.47892701 -78.90322875 17.38349766 -69.59765625 15.10546875 C-68.90654251 14.93543335 -68.21542877 14.76539795 -67.50337219 14.59020996 C-66.05618392 14.2345389 -64.60866467 13.88021203 -63.16082764 13.52719116 C-61.07918646 13.01931963 -58.99866108 12.50713073 -56.91845703 11.9934082 C-52.84327348 10.98817057 -48.76585821 9.99227205 -44.6875 9 C-43.97608856 8.82669159 -43.26467712 8.65338318 -42.53170776 8.474823 C-33.13875557 6.19063409 -23.73714621 3.98938404 -14.25463867 2.10351562 C-2.61419806 -0.22154221 -2.61419806 -0.22154221 0 0 Z " fill="#AEAA9A" transform="translate(395,164)"/>
<path d="M0 0 C2.28764136 3.70755669 2.5017533 5.64881281 1.8125 9.9375 C-0.31110378 13.41198177 -1.65358511 14.74061275 -5.5090332 16.16235352 C-6.81034534 16.46205834 -8.11642907 16.74154559 -9.42578125 17.00390625 C-10.86933325 17.32815481 -12.31285453 17.65254022 -13.75634766 17.97705078 C-14.49306702 18.13538391 -15.22978638 18.29371704 -15.98883057 18.45684814 C-19.41887675 19.20669168 -22.82242352 20.05916618 -26.23046875 20.90234375 C-27.57450574 21.22901941 -28.91874607 21.55485953 -30.26318359 21.87988281 C-33.08024833 22.56146205 -35.89695116 23.24450426 -38.71337891 23.92871094 C-45.00459303 25.45520885 -51.29685584 26.9724405 -57.60546875 28.42578125 C-76.20156717 32.71075227 -93.46178706 38.47415241 -107.45703125 52.15625 C-113.977315 58.46548538 -113.977315 58.46548538 -118.4375 58.75 C-123.00975997 57.75934367 -124.59183318 56.83100023 -127.1875 52.9375 C-127.99631728 48.82601216 -128.16035025 46.62219189 -126.06640625 42.99609375 C-109.12675637 22.08555337 -82.21414127 13.78085438 -57.1875 7.9375 C-56.07810059 7.67791504 -54.96870117 7.41833008 -53.82568359 7.15087891 C-48.29363026 5.86046647 -42.75824176 4.5862042 -37.21875 3.328125 C-33.51937482 2.48461169 -29.83302508 1.60891719 -26.15625 0.671875 C-6.62423316 -4.28626852 -6.62423316 -4.28626852 0 0 Z " fill="#AEAA9A" transform="translate(399.1875,111.0625)"/>
<path d="M0 0 C3.12823648 2.00207135 4.55889152 3.30395498 5.50390625 6.9375 C5.84088561 10.7231405 5.84088561 10.7231405 5 13 C-0.31480564 19.31871337 -8.24382276 20.16298953 -15.9375 21.875 C-17.40423836 22.21497179 -18.87062444 22.5564667 -20.33666992 22.89941406 C-24.88571444 23.95736158 -29.44172425 24.98265709 -34 26 C-34.72973022 26.16302612 -35.45946045 26.32605225 -36.21130371 26.49401855 C-37.65120245 26.81549597 -39.09115837 27.13671737 -40.53117371 27.45767212 C-41.93582973 27.77082122 -43.34038211 28.08443562 -44.74482727 28.39852905 C-48.02620933 29.13196223 -51.30863986 29.85700867 -54.59545898 30.56591797 C-74.915454 35.03019052 -91.96926656 42.62860284 -107.3125 57 C-109.89946808 59.29238579 -111.2350405 60.08104845 -114.625 61.25 C-118.21357168 60.98417988 -120.27939054 60.24158977 -122.90161133 57.71337891 C-125.03048491 54.39254432 -124.71256869 50.7696924 -124 47 C-122.53201792 44.35984727 -120.60872545 42.51019392 -118.375 40.5 C-117.49799438 39.67218018 -117.49799438 39.67218018 -116.60327148 38.82763672 C-110.59931809 33.32967487 -104.07102807 28.98914217 -97 25 C-95.92492187 24.37480469 -94.84984375 23.74960938 -93.7421875 23.10546875 C-76.97050854 14.0059408 -57.61919045 10.88107961 -39.14208984 6.89086914 C-37.66110289 6.57061362 -36.18014554 6.25022115 -34.69921875 5.9296875 C-33.97684525 5.77360016 -33.25447174 5.61751282 -32.51020813 5.45669556 C-26.10990772 4.05779 -19.77089284 2.45302597 -13.43359375 0.79370117 C-8.91197327 -0.25150561 -4.58017279 -1.01283664 0 0 Z " fill="#AEAA9A" transform="translate(396,53)"/>
<path d="M0 0 C0 1.32 0 2.64 0 4 C-10.35871132 13.11485032 -25.32079141 18.46083334 -39 17.875 C-45.10939887 17.30531329 -49.67654745 15.96578991 -55 13 C-55.92941406 12.51917969 -56.85882813 12.03835938 -57.81640625 11.54296875 C-62.55271486 9.05183439 -66.9912965 6.59401004 -71 3 C-69.59911001 -1.20266998 -67.26117746 -1.80145072 -63.47265625 -3.80078125 C-60.05633657 -5.45766931 -56.61601749 -6.84580992 -53 -8 C-51.46472656 -8.5259375 -51.46472656 -8.5259375 -49.8984375 -9.0625 C-32.2351219 -14.026347 -15.40987819 -8.21110297 0 0 Z " fill="#47433F" transform="translate(291,319)"/>
</svg>
